<svg version="1.1" id="Layer_1" xmlns="http://www.w3.org/2000/svg" xmlns:xlink="http://www.w3.org/1999/xlink" x="0px" y="0px"
	 width="100%" viewBox="0 0 800 800" enable-background="new 0 0 800 800" xml:space="preserve">
<path fill="#F08550" opacity="1.000000" stroke="none" 
	d="
M263.000000,801.000000 
	C253.979111,801.000000 244.958206,801.000000 235.398926,800.658691 
	C214.415375,789.084290 206.619949,770.229736 206.137863,748.507446 
	C205.741257,730.637573 207.736740,712.680420 209.246994,694.810547 
	C211.542892,667.644653 214.284302,640.515808 216.933105,613.380615 
	C219.580872,586.255981 222.134674,559.118530 225.241776,532.045410 
	C225.861191,526.648438 224.033096,524.733948 219.625275,522.815674 
	C168.750595,500.674988 117.891830,478.495758 67.149475,456.054016 
	C46.607418,446.968964 29.545664,433.595703 18.556952,413.450623 
	C5.093848,388.769287 9.377510,363.276123 29.998344,344.243164 
	C40.703323,334.362518 53.198627,327.524719 66.848366,323.054565 
	C112.294075,308.171448 157.855164,293.640381 203.381027,279.002350 
	C220.078995,273.633453 236.789429,268.302521 253.520813,263.038910 
	C259.090881,261.286591 262.408691,258.049835 263.413483,251.966339 
	C266.736206,231.849182 270.378052,211.784271 273.960327,191.710526 
	C280.628052,154.346573 286.335022,116.773575 294.337250,79.696663 
	C301.309082,47.393734 314.729279,18.413357 348.001495,4.145007 
	C348.662384,3.861606 348.681488,2.081716 349.000000,1.000002 
	C357.020905,1.000000 365.041809,1.000000 373.146637,1.223753 
	C374.752502,2.315098 376.175720,3.529483 377.812042,3.995273 
	C390.598999,7.635202 401.045532,14.971718 408.951691,25.341618 
	C417.192993,36.151154 424.942017,47.413990 432.016968,59.020699 
	C456.565704,99.293739 480.721069,139.806488 505.043976,180.217285 
	C509.449615,187.536911 510.947479,188.189316 519.277588,185.978821 
	C580.218750,169.807404 641.169983,153.672974 702.070435,137.349304 
	C721.167969,132.230423 740.215881,128.581741 760.045898,132.963821 
	C781.284485,137.657181 794.028198,153.118759 792.922363,174.102036 
	C792.127686,189.181732 786.253357,202.611130 776.992737,214.237274 
	C764.241333,230.245789 750.846436,245.745804 737.590515,261.347534 
	C704.060425,300.811340 670.514648,340.262207 636.844543,379.606476 
	C625.379822,393.003326 625.355530,392.769806 633.670288,408.524689 
	C659.615051,457.685272 685.509338,506.872925 711.249756,556.140686 
	C718.315857,569.665405 722.591675,583.904236 722.118530,599.550842 
	C721.360291,624.622375 701.437561,650.991455 677.005859,656.799500 
	C660.884644,660.631897 644.537415,661.343933 628.273315,656.275452 
	C571.391968,638.549133 514.445862,621.030457 457.547821,603.357361 
	C448.197815,600.453064 445.513336,601.196716 439.412079,608.571838 
	C426.889587,623.708801 414.289429,638.782471 401.610748,653.788879 
	C369.157928,692.199890 336.610077,730.530579 304.174988,768.956482 
	C293.309479,781.828857 281.214050,793.006409 265.185974,799.187622 
	C264.348816,799.510437 263.723785,800.383240 263.000000,801.000000 
M598.107239,247.643600 
	C556.640930,258.529572 515.172607,269.407959 473.709930,280.307587 
	C464.897614,282.624207 463.829590,282.241333 459.191772,274.517853 
	C431.491119,228.386948 403.809998,182.244278 376.070160,136.136948 
	C373.990448,132.680191 371.504425,129.467926 368.633392,125.311043 
	C367.915314,128.732086 367.423187,130.788010 367.056671,132.866074 
	C362.248322,160.128525 357.531586,187.407333 352.643585,214.655457 
	C346.819122,247.123627 340.728760,279.544678 335.050140,312.037933 
	C333.921692,318.494934 331.241547,322.069916 324.706726,324.112000 
	C268.932770,341.540955 213.259567,359.292633 157.570938,376.994110 
	C151.975174,378.772827 146.476852,380.858124 139.489319,383.307251 
	C142.603210,384.678375 144.200729,385.446381 145.844910,386.096375 
	C198.059708,406.737671 250.281387,427.361511 302.495148,448.005371 
	C310.772430,451.277954 311.566986,453.216461 310.659393,461.949005 
	C309.198212,476.007751 308.234436,490.117615 306.988251,504.199493 
	C305.815796,517.447937 304.594086,530.692383 303.312958,543.930786 
	C301.920258,558.322571 300.394897,572.701416 299.000061,587.092957 
	C297.668854,600.828064 296.401459,614.569519 295.162262,628.313293 
	C294.259338,638.326965 293.447845,648.348816 292.595612,658.367065 
	C293.024475,658.540405 293.453369,658.713684 293.882233,658.887024 
	C296.606628,656.321655 299.566711,653.961792 302.014374,651.155151 
	C312.412079,639.232239 322.743317,627.248962 332.942963,615.156250 
	C362.249542,580.410156 391.449799,545.574402 420.764038,510.834778 
	C427.522247,502.825745 429.651886,502.406342 439.828247,505.803741 
	C450.981659,509.527374 462.009735,513.685486 473.301819,516.924194 
	C513.553772,528.468994 553.893311,539.708374 594.203491,551.049988 
	C599.611450,552.571472 605.041138,554.015625 611.485840,555.775574 
	C609.731018,552.163330 608.639343,549.757385 607.415771,547.420532 
	C581.552673,498.025757 555.671936,448.640198 529.802612,399.248657 
	C526.235168,392.437439 526.534424,389.916382 531.582397,383.980408 
	C542.045410,371.676697 552.530334,359.391479 562.991760,347.086395 
	C586.826660,319.051056 610.658752,291.013397 634.479248,262.965790 
	C642.958313,252.982056 651.400330,242.966873 659.859253,232.966034 
	C659.574646,232.484207 659.290039,232.002380 659.005432,231.520554 
	C638.955505,236.780380 618.905640,242.040207 598.107239,247.643600 
z"/>
<path fill="#01031A" opacity="1.000000" stroke="none" 
	d="
M263.468658,801.000000 
	C263.723785,800.383240 264.348816,799.510437 265.185974,799.187622 
	C281.214050,793.006409 293.309479,781.828857 304.174988,768.956482 
	C336.610077,730.530579 369.157928,692.199890 401.610748,653.788879 
	C414.289429,638.782471 426.889587,623.708801 439.412079,608.571838 
	C445.513336,601.196716 448.197815,600.453064 457.547821,603.357361 
	C514.445862,621.030457 571.391968,638.549133 628.273315,656.275452 
	C644.537415,661.343933 660.884644,660.631897 677.005859,656.799500 
	C701.437561,650.991455 721.360291,624.622375 722.118530,599.550842 
	C722.591675,583.904236 718.315857,569.665405 711.249756,556.140686 
	C685.509338,506.872925 659.615051,457.685272 633.670288,408.524689 
	C625.355530,392.769806 625.379822,393.003326 636.844543,379.606476 
	C670.514648,340.262207 704.060425,300.811340 737.590515,261.347534 
	C750.846436,245.745804 764.241333,230.245789 776.992737,214.237274 
	C786.253357,202.611130 792.127686,189.181732 792.922363,174.102036 
	C794.028198,153.118759 781.284485,137.657181 760.045898,132.963821 
	C740.215881,128.581741 721.167969,132.230423 702.070435,137.349304 
	C641.169983,153.672974 580.218750,169.807404 519.277588,185.978821 
	C510.947479,188.189316 509.449615,187.536911 505.043976,180.217285 
	C480.721069,139.806488 456.565704,99.293739 432.016968,59.020699 
	C424.942017,47.413990 417.192993,36.151154 408.951691,25.341618 
	C401.045532,14.971718 390.598999,7.635202 377.812042,3.995273 
	C376.175720,3.529483 374.752502,2.315098 373.615295,1.223753 
	C516.298035,1.000000 658.596130,1.000000 800.947083,1.000000 
	C800.947083,267.565308 800.947083,534.130615 800.947083,801.000000 
	C621.979248,801.000000 442.958282,801.000000 263.468658,801.000000 
z"/>
<path fill="#01031A" opacity="1.000000" stroke="none" 
	d="
M348.531342,1.000002 
	C348.681488,2.081716 348.662384,3.861606 348.001495,4.145007 
	C314.729279,18.413357 301.309082,47.393734 294.337250,79.696663 
	C286.335022,116.773575 280.628052,154.346573 273.960327,191.710526 
	C270.378052,211.784271 266.736206,231.849182 263.413483,251.966339 
	C262.408691,258.049835 259.090881,261.286591 253.520813,263.038910 
	C236.789429,268.302521 220.078995,273.633453 203.381027,279.002350 
	C157.855164,293.640381 112.294075,308.171448 66.848366,323.054565 
	C53.198627,327.524719 40.703323,334.362518 29.998344,344.243164 
	C9.377510,363.276123 5.093848,388.769287 18.556952,413.450623 
	C29.545664,433.595703 46.607418,446.968964 67.149475,456.054016 
	C117.891830,478.495758 168.750595,500.674988 219.625275,522.815674 
	C224.033096,524.733948 225.861191,526.648438 225.241776,532.045410 
	C222.134674,559.118530 219.580872,586.255981 216.933105,613.380615 
	C214.284302,640.515808 211.542892,667.644653 209.246994,694.810547 
	C207.736740,712.680420 205.741257,730.637573 206.137863,748.507446 
	C206.619949,770.229736 214.415375,789.084290 234.930267,800.658691 
	C157.024673,801.000000 79.049347,801.000000 1.037010,801.000000 
	C1.037010,534.442383 1.037010,267.884735 1.037010,1.000000 
	C116.687355,1.000000 232.375015,1.000000 348.531342,1.000002 
z"/>
<path fill="#01031A" opacity="1.000000" stroke="none" 
	d="
M598.481506,247.471817 
	C618.905640,242.040207 638.955505,236.780380 659.005432,231.520554 
	C659.290039,232.002380 659.574646,232.484207 659.859253,232.966034 
	C651.400330,242.966873 642.958313,252.982056 634.479248,262.965790 
	C610.658752,291.013397 586.826660,319.051056 562.991760,347.086395 
	C552.530334,359.391479 542.045410,371.676697 531.582397,383.980408 
	C526.534424,389.916382 526.235168,392.437439 529.802612,399.248657 
	C555.671936,448.640198 581.552673,498.025757 607.415771,547.420532 
	C608.639343,549.757385 609.731018,552.163330 611.485840,555.775574 
	C605.041138,554.015625 599.611450,552.571472 594.203491,551.049988 
	C553.893311,539.708374 513.553772,528.468994 473.301819,516.924194 
	C462.009735,513.685486 450.981659,509.527374 439.828247,505.803741 
	C429.651886,502.406342 427.522247,502.825745 420.764038,510.834778 
	C391.449799,545.574402 362.249542,580.410156 332.942963,615.156250 
	C322.743317,627.248962 312.412079,639.232239 302.014374,651.155151 
	C299.566711,653.961792 296.606628,656.321655 293.882233,658.887024 
	C293.453369,658.713684 293.024475,658.540405 292.595612,658.367065 
	C293.447845,648.348816 294.259338,638.326965 295.162262,628.313293 
	C296.401459,614.569519 297.668854,600.828064 299.000061,587.092957 
	C300.394897,572.701416 301.920258,558.322571 303.312958,543.930786 
	C304.594086,530.692383 305.815796,517.447937 306.988251,504.199493 
	C308.234436,490.117615 309.198212,476.007751 310.659393,461.949005 
	C311.566986,453.216461 310.772430,451.277954 302.495148,448.005371 
	C250.281387,427.361511 198.059708,406.737671 145.844910,386.096375 
	C144.200729,385.446381 142.603210,384.678375 139.489319,383.307251 
	C146.476852,380.858124 151.975174,378.772827 157.570938,376.994110 
	C213.259567,359.292633 268.932770,341.540955 324.706726,324.112000 
	C331.241547,322.069916 333.921692,318.494934 335.050140,312.037933 
	C340.728760,279.544678 346.819122,247.123627 352.643585,214.655457 
	C357.531586,187.407333 362.248322,160.128525 367.056671,132.866074 
	C367.423187,130.788010 367.915314,128.732086 368.633392,125.311043 
	C371.504425,129.467926 373.990448,132.680191 376.070160,136.136948 
	C403.809998,182.244278 431.491119,228.386948 459.191772,274.517853 
	C463.829590,282.241333 464.897614,282.624207 473.709930,280.307587 
	C515.172607,269.407959 556.640930,258.529572 598.481506,247.471817 
z"/>
</svg>