<svg version="1.1" id="Layer_1" xmlns="http://www.w3.org/2000/svg" xmlns:xlink="http://www.w3.org/1999/xlink" x="0px" y="0px"
	 width="100%" viewBox="0 0 800 800" enable-background="new 0 0 800 800" xml:space="preserve">
<path fill="#01031A" opacity="1.000000" stroke="none" 
	d="
M1.000001,377.000000 
	C1.000000,251.696365 1.000000,126.392738 1.000000,1.044554 
	C267.573761,1.044554 534.147522,1.044554 801.000000,1.044554 
	C801.000000,206.358154 801.000000,411.716431 800.661743,617.679688 
	C799.593018,617.629456 798.729248,617.074280 798.150879,616.304688 
	C745.227966,545.885315 692.317688,475.456482 639.437012,405.005463 
	C633.369019,396.921356 633.669312,385.307343 639.980835,377.294373 
	C643.068665,373.374146 646.277527,369.547272 649.302429,365.579712 
	C691.635254,310.054443 733.949829,254.515259 776.255066,198.969009 
	C780.336670,193.609985 784.326782,188.181259 788.459412,182.650940 
	C764.120422,173.357147 742.825806,184.496140 731.789856,198.841675 
	C727.849976,203.963043 724.601562,209.613022 720.717957,214.781631 
	C688.277283,257.956848 655.757324,301.072540 623.274170,344.215851 
	C618.240967,350.900909 613.273254,357.635345 608.267700,364.357086 
	C607.518311,363.766907 607.204224,363.611542 607.019287,363.360870 
	C571.794312,315.625977 536.671875,267.815002 501.288971,220.197525 
	C493.582428,209.826233 486.067719,198.868179 476.475922,190.445053 
	C461.722473,177.489243 443.824249,176.072250 424.825806,182.136887 
	C427.272736,185.228348 429.364258,187.804260 431.385498,190.434189 
	C480.816620,254.751556 530.241455,319.073700 579.663330,383.398193 
	C585.030212,390.383392 585.042969,390.410797 579.722717,397.555817 
	C529.811279,464.586487 479.888184,531.608459 429.976257,598.638794 
	C424.305176,606.254883 418.681641,613.906311 412.860352,621.778992 
	C430.678467,627.598938 446.870087,625.403992 460.779633,613.969055 
	C467.034546,608.826965 471.591492,601.500305 476.494354,594.851746 
	C512.488708,546.041138 548.371155,497.147919 584.299683,448.288696 
	C591.853943,438.015656 599.453003,427.775604 607.184204,417.313507 
	C608.092041,418.431610 608.743896,419.158203 609.312134,419.945160 
	C652.863220,480.256592 696.448792,540.543213 739.915222,600.915649 
	C747.834717,611.915161 757.488708,620.316223 770.853821,623.715881 
	C780.935852,626.280457 790.985413,624.726135 801.000000,623.000000 
	C801.000000,682.314575 801.000000,741.629150 801.000000,800.971863 
	C534.436401,800.971863 267.872833,800.971863 1.000000,800.971863 
	C1.000000,678.975281 1.000000,556.950256 1.293621,434.134735 
	C3.386007,439.401062 6.149081,445.354431 6.812549,451.533234 
	C9.355211,475.212585 13.882470,498.351379 24.061359,520.014465 
	C36.787651,547.099121 51.738907,572.558411 76.424423,590.959351 
	C129.334381,630.399170 188.253357,643.227356 252.293457,628.752563 
	C319.843750,613.484314 363.723450,571.255798 385.400543,505.738434 
	C388.601654,496.063354 390.998535,486.150360 391.185547,475.587555 
	C387.827911,474.974213 384.919678,474.430115 382.006683,473.913055 
	C368.003662,471.427460 358.854553,476.615814 354.012756,489.880066 
	C352.542847,493.906891 351.268372,498.005676 349.932831,502.080811 
	C341.047363,529.193237 326.482849,552.337524 303.779297,570.208679 
	C274.108032,593.564514 239.405197,601.230103 202.918015,602.830811 
	C184.083908,603.657043 165.378296,600.395325 147.604645,594.316650 
	C98.578583,577.549500 67.462830,542.550659 51.358871,494.347778 
	C45.484718,476.765015 43.061535,457.910095 40.316681,439.449310 
	C38.851768,429.596863 40.056797,419.347412 40.056797,409.001648 
	C41.531887,409.001648 42.849522,409.001617 44.167156,409.001648 
	C148.328232,409.004028 252.489319,409.005646 356.650391,409.009857 
	C367.816040,409.010284 378.982025,408.981964 390.147217,409.058990 
	C393.957489,409.085266 396.115570,407.816193 396.029907,403.584961 
	C395.417328,373.321411 394.113831,343.149323 386.976379,313.526733 
	C366.439148,228.291214 281.099823,153.722107 173.143082,172.392593 
	C120.902679,181.427231 79.118210,208.851273 47.549450,251.572006 
	C24.728292,282.454956 13.516792,317.757233 7.944662,355.252563 
	C6.927006,362.100464 5.158580,368.842194 3.547562,375.587769 
	C3.395376,376.224976 1.881619,376.536987 1.000001,377.000000 
z"/>
<path fill="#FEFEFE" opacity="1.000000" stroke="none" 
	d="
M1.000001,377.468658 
	C1.881619,376.536987 3.395376,376.224976 3.547562,375.587769 
	C5.158580,368.842194 6.927006,362.100464 7.944662,355.252563 
	C13.516792,317.757233 24.728292,282.454956 47.549450,251.572006 
	C79.118210,208.851273 120.902679,181.427231 173.143082,172.392593 
	C281.099823,153.722107 366.439148,228.291214 386.976379,313.526733 
	C394.113831,343.149323 395.417328,373.321411 396.029907,403.584961 
	C396.115570,407.816193 393.957489,409.085266 390.147217,409.058990 
	C378.982025,408.981964 367.816040,409.010284 356.650391,409.009857 
	C252.489319,409.005646 148.328232,409.004028 44.167156,409.001648 
	C42.849522,409.001617 41.531887,409.001648 40.056797,409.001648 
	C40.056797,419.347412 38.851768,429.596863 40.316681,439.449310 
	C43.061535,457.910095 45.484718,476.765015 51.358871,494.347778 
	C67.462830,542.550659 98.578583,577.549500 147.604645,594.316650 
	C165.378296,600.395325 184.083908,603.657043 202.918015,602.830811 
	C239.405197,601.230103 274.108032,593.564514 303.779297,570.208679 
	C326.482849,552.337524 341.047363,529.193237 349.932831,502.080811 
	C351.268372,498.005676 352.542847,493.906891 354.012756,489.880066 
	C358.854553,476.615814 368.003662,471.427460 382.006683,473.913055 
	C384.919678,474.430115 387.827911,474.974213 391.185547,475.587555 
	C390.998535,486.150360 388.601654,496.063354 385.400543,505.738434 
	C363.723450,571.255798 319.843750,613.484314 252.293457,628.752563 
	C188.253357,643.227356 129.334381,630.399170 76.424423,590.959351 
	C51.738907,572.558411 36.787651,547.099121 24.061359,520.014465 
	C13.882470,498.351379 9.355211,475.212585 6.812549,451.533234 
	C6.149081,445.354431 3.386007,439.401062 1.293621,433.672089 
	C1.000000,415.312439 1.000000,396.624878 1.000001,377.468658 
M60.255333,291.879272 
	C48.601379,319.274597 41.520832,347.735687 39.361301,377.714600 
	C147.279526,377.714600 254.270096,377.714600 361.184540,377.714600 
	C360.221527,357.678802 357.623993,338.192078 352.050507,319.136932 
	C342.060608,284.982758 324.445068,255.769974 296.431152,233.407883 
	C258.472137,203.107101 214.773697,197.331436 168.902145,206.694321 
	C119.316391,216.815308 84.106453,246.875153 60.255333,291.879272 
z"/>
<path fill="#FEFEFE" opacity="1.000000" stroke="none" 
	d="
M801.000000,622.583374 
	C790.985413,624.726135 780.935852,626.280457 770.853821,623.715881 
	C757.488708,620.316223 747.834717,611.915161 739.915222,600.915649 
	C696.448792,540.543213 652.863220,480.256592 609.312134,419.945160 
	C608.743896,419.158203 608.092041,418.431610 607.184204,417.313507 
	C599.453003,427.775604 591.853943,438.015656 584.299683,448.288696 
	C548.371155,497.147919 512.488708,546.041138 476.494354,594.851746 
	C471.591492,601.500305 467.034546,608.826965 460.779633,613.969055 
	C446.870087,625.403992 430.678467,627.598938 412.860352,621.778992 
	C418.681641,613.906311 424.305176,606.254883 429.976257,598.638794 
	C479.888184,531.608459 529.811279,464.586487 579.722717,397.555817 
	C585.042969,390.410797 585.030212,390.383392 579.663330,383.398193 
	C530.241455,319.073700 480.816620,254.751556 431.385498,190.434189 
	C429.364258,187.804260 427.272736,185.228348 424.825806,182.136887 
	C443.824249,176.072250 461.722473,177.489243 476.475922,190.445053 
	C486.067719,198.868179 493.582428,209.826233 501.288971,220.197525 
	C536.671875,267.815002 571.794312,315.625977 607.019287,363.360870 
	C607.204224,363.611542 607.518311,363.766907 608.267700,364.357086 
	C613.273254,357.635345 618.240967,350.900909 623.274170,344.215851 
	C655.757324,301.072540 688.277283,257.956848 720.717957,214.781631 
	C724.601562,209.613022 727.849976,203.963043 731.789856,198.841675 
	C742.825806,184.496140 764.120422,173.357147 788.459412,182.650940 
	C784.326782,188.181259 780.336670,193.609985 776.255066,198.969009 
	C733.949829,254.515259 691.635254,310.054443 649.302429,365.579712 
	C646.277527,369.547272 643.068665,373.374146 639.980835,377.294373 
	C633.669312,385.307343 633.369019,396.921356 639.437012,405.005463 
	C692.317688,475.456482 745.227966,545.885315 798.150879,616.304688 
	C798.729248,617.074280 799.593018,617.629456 800.661743,618.142334 
	C801.000000,619.388916 801.000000,620.777771 801.000000,622.583374 
z"/>
<path fill="#01031A" opacity="1.000000" stroke="none" 
	d="
M60.469078,291.568695 
	C84.106453,246.875153 119.316391,216.815308 168.902145,206.694321 
	C214.773697,197.331436 258.472137,203.107101 296.431152,233.407883 
	C324.445068,255.769974 342.060608,284.982758 352.050507,319.136932 
	C357.623993,338.192078 360.221527,357.678802 361.184540,377.714600 
	C254.270096,377.714600 147.279526,377.714600 39.361301,377.714600 
	C41.520832,347.735687 48.601379,319.274597 60.469078,291.568695 
z"/>
</svg>