<svg version="1.1" id="Layer_1" xmlns="http://www.w3.org/2000/svg" xmlns:xlink="http://www.w3.org/1999/xlink" x="0px" y="0px"
	 width="100%" viewBox="0 0 800 800" enable-background="new 0 0 800 800" xml:space="preserve">
<path fill="#0D1424" opacity="1.000000" stroke="none" 
	d="
M801.000000,283.000000 
	C801.000000,456.000000 801.000000,628.500000 801.000000,801.000000 
	C534.333313,801.000000 267.666656,801.000000 1.000000,801.000000 
	C1.000000,534.333313 1.000000,267.666656 1.000000,1.000000 
	C267.666656,1.000000 534.333313,1.000000 801.000000,1.000000 
	C801.000000,94.833336 801.000000,188.666672 801.000000,283.000000 
M767.998413,322.500000 
	C767.665283,302.248474 767.493896,281.992584 766.942383,261.747009 
	C766.574158,248.232117 765.862183,234.718353 764.931641,221.229782 
	C764.257324,211.454849 763.607910,201.604507 761.830322,191.994400 
	C757.830566,170.370667 751.077087,149.731415 739.468933,130.719498 
	C730.561035,116.129906 719.899109,103.045319 708.132507,90.850060 
	C702.255188,84.758568 695.485657,79.441505 688.700928,74.329941 
	C674.629150,63.728321 659.466003,55.067780 642.845093,48.894569 
	C620.991211,40.777794 598.143066,38.139954 575.221497,36.126553 
	C560.104248,34.798668 544.880920,34.076706 529.706604,34.099636 
	C440.127350,34.234982 350.548401,34.644936 260.969696,35.040699 
	C252.880463,35.076439 244.780151,35.475353 236.709045,36.046040 
	C225.108307,36.866295 213.459534,37.505692 201.961655,39.139709 
	C190.789536,40.727425 179.594803,42.802773 168.737732,45.836765 
	C138.671036,54.238873 113.839882,71.618156 91.672951,92.989830 
	C85.340416,99.095192 79.822205,106.129280 74.467926,113.147446 
	C63.775616,127.162498 55.137764,142.361176 48.933838,158.950394 
	C40.893131,180.451126 38.231922,202.983795 36.146088,225.555664 
	C34.734962,240.826187 34.076172,256.221924 34.099007,271.560120 
	C34.235828,363.470917 34.650589,455.381317 35.041180,547.291565 
	C35.066341,553.213135 35.883648,559.129395 35.962410,565.053040 
	C36.202290,583.093140 37.842926,601.053162 42.218437,618.493530 
	C45.679565,632.289307 49.994621,646.100037 55.929207,658.983459 
	C62.216152,672.631836 70.756554,685.180603 80.824692,696.668274 
	C90.251373,707.424072 99.980293,717.789368 111.616348,726.060852 
	C121.704430,733.231995 132.139008,739.998474 142.881439,746.136902 
	C149.926941,750.162842 157.540192,753.681030 165.340759,755.804626 
	C185.251358,761.225281 205.653168,764.381409 226.232666,765.917053 
	C240.708862,766.997253 255.241806,767.922363 269.747803,767.899719 
	C359.658722,767.759521 449.569305,767.356384 539.479614,766.959473 
	C548.235474,766.920837 557.020203,766.687683 565.736450,765.919250 
	C581.515015,764.528198 597.317810,763.126831 612.991028,760.891907 
	C636.797424,757.497253 658.498230,748.251709 678.441956,734.976562 
	C694.985596,723.964539 709.531921,710.725342 722.251526,695.366272 
	C737.357727,677.125305 749.016907,657.095093 755.990662,634.417969 
	C761.994629,614.894470 764.308899,594.721802 765.898315,574.493347 
	C767.074402,559.525940 767.862305,544.487915 767.907532,529.478638 
	C768.114380,460.819580 767.998413,392.159637 767.998413,322.500000 
z"/>
<path fill="#FFFFFF" opacity="1.000000" stroke="none" 
	d="
M767.998413,323.000000 
	C767.998413,392.159637 768.114380,460.819580 767.907532,529.478638 
	C767.862305,544.487915 767.074402,559.525940 765.898315,574.493347 
	C764.308899,594.721802 761.994629,614.894470 755.990662,634.417969 
	C749.016907,657.095093 737.357727,677.125305 722.251526,695.366272 
	C709.531921,710.725342 694.985596,723.964539 678.441956,734.976562 
	C658.498230,748.251709 636.797424,757.497253 612.991028,760.891907 
	C597.317810,763.126831 581.515015,764.528198 565.736450,765.919250 
	C557.020203,766.687683 548.235474,766.920837 539.479614,766.959473 
	C449.569305,767.356384 359.658722,767.759521 269.747803,767.899719 
	C255.241806,767.922363 240.708862,766.997253 226.232666,765.917053 
	C205.653168,764.381409 185.251358,761.225281 165.340759,755.804626 
	C157.540192,753.681030 149.926941,750.162842 142.881439,746.136902 
	C132.139008,739.998474 121.704430,733.231995 111.616348,726.060852 
	C99.980293,717.789368 90.251373,707.424072 80.824692,696.668274 
	C70.756554,685.180603 62.216152,672.631836 55.929207,658.983459 
	C49.994621,646.100037 45.679565,632.289307 42.218437,618.493530 
	C37.842926,601.053162 36.202290,583.093140 35.962410,565.053040 
	C35.883648,559.129395 35.066341,553.213135 35.041180,547.291565 
	C34.650589,455.381317 34.235828,363.470917 34.099007,271.560120 
	C34.076172,256.221924 34.734962,240.826187 36.146088,225.555664 
	C38.231922,202.983795 40.893131,180.451126 48.933838,158.950394 
	C55.137764,142.361176 63.775616,127.162498 74.467926,113.147446 
	C79.822205,106.129280 85.340416,99.095192 91.672951,92.989830 
	C113.839882,71.618156 138.671036,54.238873 168.737732,45.836765 
	C179.594803,42.802773 190.789536,40.727425 201.961655,39.139709 
	C213.459534,37.505692 225.108307,36.866295 236.709045,36.046040 
	C244.780151,35.475353 252.880463,35.076439 260.969696,35.040699 
	C350.548401,34.644936 440.127350,34.234982 529.706604,34.099636 
	C544.880920,34.076706 560.104248,34.798668 575.221497,36.126553 
	C598.143066,38.139954 620.991211,40.777794 642.845093,48.894569 
	C659.466003,55.067780 674.629150,63.728321 688.700928,74.329941 
	C695.485657,79.441505 702.255188,84.758568 708.132507,90.850060 
	C719.899109,103.045319 730.561035,116.129906 739.468933,130.719498 
	C751.077087,149.731415 757.830566,170.370667 761.830322,191.994400 
	C763.607910,201.604507 764.257324,211.454849 764.931641,221.229782 
	C765.862183,234.718353 766.574158,248.232117 766.942383,261.747009 
	C767.493896,281.992584 767.665283,302.248474 767.998413,323.000000 
M675.521545,157.010193 
	C666.508240,147.671738 658.130127,137.589935 648.308838,129.196884 
	C637.782471,120.201286 625.548035,113.584663 611.869568,109.945541 
	C589.727356,104.054665 566.977051,103.307861 544.360840,102.193420 
	C520.151611,101.000481 495.866516,101.006111 471.615906,101.061874 
	C411.701691,101.199631 351.787933,101.619316 291.874725,102.033928 
	C278.287292,102.127953 264.680878,102.289558 251.122910,103.091293 
	C235.759232,103.999802 220.426239,105.522072 205.105560,107.037003 
	C188.707596,108.658478 173.977707,114.837357 160.421860,124.061180 
	C148.346710,132.277512 137.874481,142.285400 128.969482,153.730881 
	C120.450577,164.680130 113.556992,176.614120 109.913765,190.308029 
	C103.932312,212.790695 103.050430,235.872375 102.226616,258.817383 
	C101.010010,292.702240 101.075500,326.642273 101.071556,360.558868 
	C101.067726,393.475494 101.655815,426.392303 102.001160,459.308838 
	C102.320274,489.725067 102.288231,520.151733 103.150703,550.552734 
	C103.586533,565.915161 105.561745,581.240295 107.017738,596.565552 
	C108.610664,613.332214 115.009315,628.257690 124.479675,642.082520 
	C132.654999,654.016785 142.546555,664.362122 153.866898,673.132874 
	C164.692673,681.520508 176.547867,688.399292 190.022110,692.023987 
	C212.470535,698.062622 235.571823,698.761658 258.524048,699.806641 
	C284.403748,700.984924 310.352081,700.983215 336.269501,700.932800 
	C383.518768,700.840820 430.767700,700.386963 478.015869,699.979065 
	C502.102051,699.771179 526.200928,699.736755 550.266174,698.858215 
	C565.799194,698.291016 581.291504,696.439575 596.783997,694.973389 
	C613.211914,693.418701 627.919067,687.166321 641.489197,678.003601 
	C653.730957,669.737854 664.322388,659.579895 673.291992,647.986572 
	C681.669312,637.158691 688.508240,625.337341 692.072754,611.800049 
	C698.123047,588.822266 698.922913,565.236511 699.784790,541.787720 
	C700.981262,509.235382 700.925232,476.627716 700.931519,444.043610 
	C700.937561,412.959442 700.333313,381.875214 700.002197,350.790955 
	C699.570679,310.283264 701.373413,269.735168 697.960938,229.282990 
	C697.179565,220.020340 696.286682,210.733246 694.740295,201.576447 
	C692.020569,185.471664 685.592163,170.810379 675.521545,157.010193 
z"/>
<path fill="#0D1424" opacity="1.000000" stroke="none" 
	d="
M675.776123,157.278046 
	C685.592163,170.810379 692.020569,185.471664 694.740295,201.576447 
	C696.286682,210.733246 697.179565,220.020340 697.960938,229.282990 
	C701.373413,269.735168 699.570679,310.283264 700.002197,350.790955 
	C700.333313,381.875214 700.937561,412.959442 700.931519,444.043610 
	C700.925232,476.627716 700.981262,509.235382 699.784790,541.787720 
	C698.922913,565.236511 698.123047,588.822266 692.072754,611.800049 
	C688.508240,625.337341 681.669312,637.158691 673.291992,647.986572 
	C664.322388,659.579895 653.730957,669.737854 641.489197,678.003601 
	C627.919067,687.166321 613.211914,693.418701 596.783997,694.973389 
	C581.291504,696.439575 565.799194,698.291016 550.266174,698.858215 
	C526.200928,699.736755 502.102051,699.771179 478.015869,699.979065 
	C430.767700,700.386963 383.518768,700.840820 336.269501,700.932800 
	C310.352081,700.983215 284.403748,700.984924 258.524048,699.806641 
	C235.571823,698.761658 212.470535,698.062622 190.022110,692.023987 
	C176.547867,688.399292 164.692673,681.520508 153.866898,673.132874 
	C142.546555,664.362122 132.654999,654.016785 124.479675,642.082520 
	C115.009315,628.257690 108.610664,613.332214 107.017738,596.565552 
	C105.561745,581.240295 103.586533,565.915161 103.150703,550.552734 
	C102.288231,520.151733 102.320274,489.725067 102.001160,459.308838 
	C101.655815,426.392303 101.067726,393.475494 101.071556,360.558868 
	C101.075500,326.642273 101.010010,292.702240 102.226616,258.817383 
	C103.050430,235.872375 103.932312,212.790695 109.913765,190.308029 
	C113.556992,176.614120 120.450577,164.680130 128.969482,153.730881 
	C137.874481,142.285400 148.346710,132.277512 160.421860,124.061180 
	C173.977707,114.837357 188.707596,108.658478 205.105560,107.037003 
	C220.426239,105.522072 235.759232,103.999802 251.122910,103.091293 
	C264.680878,102.289558 278.287292,102.127953 291.874725,102.033928 
	C351.787933,101.619316 411.701691,101.199631 471.615906,101.061874 
	C495.866516,101.006111 520.151611,101.000481 544.360840,102.193420 
	C566.977051,103.307861 589.727356,104.054665 611.869568,109.945541 
	C625.548035,113.584663 637.782471,120.201286 648.308838,129.196884 
	C658.130127,137.589935 666.508240,147.671738 675.776123,157.278046 
M217.041183,320.650604 
	C216.317978,322.608154 215.681747,324.603149 214.858063,326.517487 
	C206.919403,344.967926 202.401733,364.397736 201.255066,384.266113 
	C200.128723,403.782440 200.566284,423.363586 204.851181,442.769806 
	C209.976410,465.981964 218.571747,487.586639 231.172424,507.669495 
	C242.045303,524.998779 255.395752,540.095825 270.864960,553.528076 
	C283.455200,564.460510 297.205658,573.599121 312.060608,580.779907 
	C323.708893,586.410583 336.023468,591.025391 348.484894,594.505859 
	C360.122650,597.756226 372.276672,599.921753 384.326294,600.726807 
	C397.328979,601.595581 410.575653,601.221863 423.528503,599.745972 
	C436.295898,598.291138 448.973816,595.326111 461.427948,592.029724 
	C477.189484,587.858093 491.647522,580.495544 505.641571,572.100342 
	C525.705688,560.063721 542.934326,544.720886 557.492676,526.669983 
	C569.842651,511.357330 579.776245,494.396271 587.120117,475.922058 
	C594.531616,457.277802 599.294556,438.018402 600.755310,418.167755 
	C601.711060,405.179688 601.221924,391.918671 599.748779,378.965393 
	C598.277649,366.030579 595.359375,353.171692 592.013306,340.561371 
	C587.872620,324.955872 580.727539,310.543457 572.351624,296.697723 
	C560.164734,276.552399 544.863037,259.063141 526.609924,244.445068 
	C511.251160,232.144928 494.388855,222.084808 475.835083,214.852112 
	C457.158875,207.571686 437.971039,202.350372 418.100311,201.258087 
	C398.585815,200.185379 379.044891,200.699631 359.588318,204.807419 
	C324.938965,212.122803 294.474213,227.515121 268.080933,250.647385 
	C246.149155,269.869354 229.112091,293.058990 217.041183,320.650604 
M633.967651,191.932343 
	C628.307373,174.366791 611.184570,163.975021 593.610229,167.902832 
	C579.711548,171.009171 567.631714,183.610931 567.083679,199.446198 
	C566.615417,212.975540 572.464600,223.612289 584.100281,230.507721 
	C598.251648,238.893982 616.223328,235.243744 626.512817,223.088333 
	C634.144165,214.073059 636.503723,204.125412 633.967651,191.932343 
z"/>
<path fill="#FFFFFF" opacity="1.000000" stroke="none" 
	d="
M217.269684,320.327698 
	C229.112091,293.058990 246.149155,269.869354 268.080933,250.647385 
	C294.474213,227.515121 324.938965,212.122803 359.588318,204.807419 
	C379.044891,200.699631 398.585815,200.185379 418.100311,201.258087 
	C437.971039,202.350372 457.158875,207.571686 475.835083,214.852112 
	C494.388855,222.084808 511.251160,232.144928 526.609924,244.445068 
	C544.863037,259.063141 560.164734,276.552399 572.351624,296.697723 
	C580.727539,310.543457 587.872620,324.955872 592.013306,340.561371 
	C595.359375,353.171692 598.277649,366.030579 599.748779,378.965393 
	C601.221924,391.918671 601.711060,405.179688 600.755310,418.167755 
	C599.294556,438.018402 594.531616,457.277802 587.120117,475.922058 
	C579.776245,494.396271 569.842651,511.357330 557.492676,526.669983 
	C542.934326,544.720886 525.705688,560.063721 505.641571,572.100342 
	C491.647522,580.495544 477.189484,587.858093 461.427948,592.029724 
	C448.973816,595.326111 436.295898,598.291138 423.528503,599.745972 
	C410.575653,601.221863 397.328979,601.595581 384.326294,600.726807 
	C372.276672,599.921753 360.122650,597.756226 348.484894,594.505859 
	C336.023468,591.025391 323.708893,586.410583 312.060608,580.779907 
	C297.205658,573.599121 283.455200,564.460510 270.864960,553.528076 
	C255.395752,540.095825 242.045303,524.998779 231.172424,507.669495 
	C218.571747,487.586639 209.976410,465.981964 204.851181,442.769806 
	C200.566284,423.363586 200.128723,403.782440 201.255066,384.266113 
	C202.401733,364.397736 206.919403,344.967926 214.858063,326.517487 
	C215.681747,324.603149 216.317978,322.608154 217.269684,320.327698 
M269.429016,418.950836 
	C269.953644,421.641571 270.502014,424.327881 270.999237,427.023682 
	C275.453857,451.175995 286.435944,472.136475 302.820129,490.178680 
	C315.869995,504.549133 331.378540,515.609619 349.430756,523.223694 
	C364.555176,529.602905 380.281952,533.214050 396.480438,533.754150 
	C406.515930,534.088806 416.715698,532.523987 426.695251,530.907471 
	C450.790497,527.004761 471.580658,515.845215 489.592194,499.742157 
	C504.187531,486.693420 515.423401,471.061066 523.116577,452.846222 
	C529.696533,437.267273 533.380493,421.070038 533.781677,404.338074 
	C534.010620,394.788696 532.610779,385.077972 530.906738,375.626984 
	C525.309265,344.582611 509.709167,319.357178 485.646332,299.049683 
	C462.939911,279.886841 436.548706,269.990570 407.278046,268.265564 
	C396.300751,267.618652 384.999573,269.188507 374.101288,271.159180 
	C351.048462,275.327667 330.803467,285.965515 313.319122,301.363098 
	C298.490570,314.421814 286.931244,330.119537 279.125641,348.444427 
	C271.983948,365.210602 268.374115,382.714661 268.065887,400.877167 
	C267.968384,406.621094 268.686523,412.378845 269.429016,418.950836 
z"/>
<path fill="#FFFFFF" opacity="1.000000" stroke="none" 
	d="
M633.980469,192.361481 
	C636.503723,204.125412 634.144165,214.073059 626.512817,223.088333 
	C616.223328,235.243744 598.251648,238.893982 584.100281,230.507721 
	C572.464600,223.612289 566.615417,212.975540 567.083679,199.446198 
	C567.631714,183.610931 579.711548,171.009171 593.610229,167.902832 
	C611.184570,163.975021 628.307373,174.366791 633.980469,192.361481 
z"/>
<path fill="#0D1424" opacity="1.000000" stroke="none" 
	d="
M269.230225,418.540558 
	C268.686523,412.378845 267.968384,406.621094 268.065887,400.877167 
	C268.374115,382.714661 271.983948,365.210602 279.125641,348.444427 
	C286.931244,330.119537 298.490570,314.421814 313.319122,301.363098 
	C330.803467,285.965515 351.048462,275.327667 374.101288,271.159180 
	C384.999573,269.188507 396.300751,267.618652 407.278046,268.265564 
	C436.548706,269.990570 462.939911,279.886841 485.646332,299.049683 
	C509.709167,319.357178 525.309265,344.582611 530.906738,375.626984 
	C532.610779,385.077972 534.010620,394.788696 533.781677,404.338074 
	C533.380493,421.070038 529.696533,437.267273 523.116577,452.846222 
	C515.423401,471.061066 504.187531,486.693420 489.592194,499.742157 
	C471.580658,515.845215 450.790497,527.004761 426.695251,530.907471 
	C416.715698,532.523987 406.515930,534.088806 396.480438,533.754150 
	C380.281952,533.214050 364.555176,529.602905 349.430756,523.223694 
	C331.378540,515.609619 315.869995,504.549133 302.820129,490.178680 
	C286.435944,472.136475 275.453857,451.175995 270.999237,427.023682 
	C270.502014,424.327881 269.953644,421.641571 269.230225,418.540558 
z"/>
</svg>