<svg version="1.1" id="Layer_1" xmlns="http://www.w3.org/2000/svg" xmlns:xlink="http://www.w3.org/1999/xlink" x="0px" y="0px"
	 width="100%" viewBox="0 0 1280 720" enable-background="new 0 0 1280 720" xml:space="preserve">
<path fill="#20232C" opacity="1.000000" stroke="none" 
	d="
M1049.000000,721.000000 
	C1024.309204,721.000000 999.618469,721.000000 974.374207,720.664856 
	C967.263977,717.232666 960.737976,714.068665 954.143982,711.052979 
	C941.800781,705.407776 929.449280,699.778625 917.042969,694.274109 
	C905.433044,689.122986 893.803894,684.003052 882.035645,679.233704 
	C880.240906,678.506409 876.947449,678.964050 875.546936,680.215942 
	C869.739502,685.406494 864.371338,691.091370 858.901733,696.653503 
	C858.169739,697.397827 857.779175,698.477844 857.149841,699.538208 
	C858.020935,700.129578 858.511719,700.593018 859.094299,700.838684 
	C869.476379,705.218994 879.932251,709.431641 890.231140,713.998535 
	C894.652893,715.959229 898.753479,718.644104 903.000000,721.000000 
	C602.373840,721.000000 301.747620,721.000000 1.060726,721.000000 
	C1.060726,481.072815 1.060726,241.145599 1.060726,1.109199 
	C427.666656,1.109199 854.333313,1.109199 1281.000000,1.109193 
	C1281.000000,91.430206 1281.000000,181.751221 1280.654541,272.589905 
	C1279.301270,273.922455 1277.991577,274.545441 1277.332397,275.582123 
	C1271.203857,285.221100 1266.163208,295.350433 1264.291016,306.764893 
	C1262.490479,317.743317 1260.292725,328.695892 1264.604370,339.693726 
	C1265.779297,342.690826 1265.869751,346.113007 1266.457886,349.340118 
	C1266.056641,349.631622 1265.655273,349.923126 1265.253906,350.214661 
	C1263.056274,347.811768 1260.930054,345.338745 1258.647705,343.019165 
	C1251.922241,336.184082 1245.108521,329.435822 1238.387207,322.596588 
	C1236.294800,320.467407 1234.587524,320.536957 1232.534058,322.727692 
	C1227.546753,328.048126 1222.305908,333.135620 1217.450562,338.570038 
	C1216.739624,339.365784 1216.967163,342.133453 1217.794800,342.994965 
	C1226.133301,351.675079 1234.678345,360.157043 1243.183716,368.676483 
	C1254.176880,379.688019 1265.161377,390.708801 1276.222412,401.651764 
	C1277.585205,403.000061 1279.396484,403.894989 1281.000000,405.000000 
	C1281.000000,431.024078 1281.000000,457.048157 1280.657471,483.588562 
	C1274.212646,489.927887 1268.023438,495.665710 1262.115234,501.679443 
	C1261.359985,502.448273 1261.587036,504.881927 1262.188110,506.151886 
	C1263.955322,509.885498 1266.653687,513.231140 1268.075195,517.066772 
	C1275.236206,536.389771 1273.950439,555.572144 1263.748657,573.213562 
	C1258.101807,582.978699 1250.437134,591.921265 1242.318604,599.836060 
	C1228.437622,613.368530 1211.340332,620.792053 1191.672974,620.949829 
	C1168.676880,621.134338 1149.769287,611.170593 1132.951172,596.402527 
	C1130.425537,594.184753 1130.547852,591.922424 1132.922852,589.572937 
	C1139.301392,583.262939 1145.600952,576.873047 1151.976074,570.559448 
	C1163.981567,558.669861 1176.069946,546.863586 1188.025391,534.924011 
	C1197.416260,525.545593 1206.595459,515.955261 1215.982544,506.572906 
	C1229.332031,493.229950 1242.874023,480.078705 1256.148926,466.662750 
	C1261.057251,461.702393 1260.905029,460.685547 1256.148560,455.685516 
	C1245.527344,444.520294 1234.762085,433.693451 1220.638306,426.575653 
	C1208.252319,420.333527 1195.378418,416.894623 1181.685913,416.010559 
	C1168.190186,415.139221 1155.340698,418.082123 1142.713013,422.552704 
	C1129.024170,427.398865 1117.341187,435.517487 1106.653809,445.007629 
	C1095.328979,455.063812 1085.389526,466.488129 1079.224365,480.498810 
	C1075.249878,489.531097 1070.902100,498.816803 1069.399536,508.408478 
	C1067.703003,519.237610 1068.018311,530.648499 1069.253906,541.603943 
	C1070.858398,555.828003 1075.875488,569.295166 1083.881958,581.320618 
	C1088.355713,588.040222 1093.084839,594.716736 1098.561646,600.611145 
	C1106.215698,608.848755 1113.931763,617.368591 1122.974121,623.892334 
	C1134.873657,632.477417 1148.000000,639.141968 1162.592651,642.869446 
	C1189.827515,649.826172 1215.350830,645.807312 1239.300171,631.917358 
	C1254.044189,623.366150 1266.335327,611.720215 1276.682739,598.086975 
	C1277.704224,596.741089 1279.541382,596.014160 1281.000000,595.000000 
	C1281.000000,636.945129 1281.000000,678.890320 1281.000000,721.000000 
	C1213.975952,721.000000 1146.951904,721.000000 1079.404053,720.624390 
	C1072.850952,705.559082 1066.875122,690.847046 1060.772095,676.187988 
	C1057.135010,667.451782 1053.248169,658.819885 1049.564941,650.102539 
	C1045.960571,641.571716 1042.559814,632.954468 1038.912964,624.442261 
	C1032.850708,610.292114 1026.677856,596.189148 1020.523010,582.078796 
	C1016.429321,572.693848 1012.208801,563.363464 1008.205322,553.940552 
	C1006.755737,550.528809 1005.044434,550.471924 1002.665833,552.846558 
	C997.381775,558.121704 992.024963,563.328552 986.899719,568.753967 
	C985.970398,569.737732 985.252014,571.937744 985.709717,573.054077 
	C989.415588,582.092773 993.394348,591.020508 997.351868,599.954712 
	C1000.905884,607.978210 1004.621338,615.930908 1008.117493,623.979187 
	C1014.064880,637.670105 1019.859985,651.427185 1025.785400,665.127747 
	C1032.505981,680.667114 1039.348022,696.154358 1046.018921,711.714966 
	C1047.294189,714.689270 1048.020508,717.898926 1049.000000,721.000000 
M721.639404,491.779297 
	C722.790222,489.559235 723.940979,487.339142 725.153442,485.000122 
	C738.109924,497.608032 739.269470,498.244537 742.325928,496.013000 
	C742.325928,491.937836 742.325928,488.784271 742.325928,485.529297 
	C740.743225,486.007233 739.392456,486.415131 738.080627,486.811279 
	C735.571106,481.150909 735.699097,481.295074 740.173584,477.322449 
	C741.248596,476.368042 741.436523,474.127075 741.546570,472.445984 
	C741.685059,470.332733 740.845215,468.082336 741.282471,466.077576 
	C742.086487,462.391357 740.518677,459.638184 737.511230,458.976898 
	C731.143677,457.576904 724.587158,456.751251 718.078918,456.524475 
	C716.826538,456.480835 714.340088,460.237335 714.305176,462.273041 
	C714.143494,471.703400 714.554932,481.149475 715.006287,490.578186 
	C715.074951,492.011658 716.431641,493.383453 717.192505,494.783752 
	C718.449524,493.837860 719.706604,492.891968 721.005371,491.990723 
	C721.005371,491.990723 720.950134,491.967346 721.639404,491.779297 
M1052.143555,289.621674 
	C1054.116943,288.449371 1056.090210,287.277039 1058.675781,286.509369 
	C1061.072021,285.454865 1063.506226,284.477661 1065.853638,283.323853 
	C1068.136230,282.201935 1070.719604,281.639191 1070.796631,277.984772 
	C1070.877319,274.150024 1067.984253,273.689484 1065.849609,272.010895 
	C1056.584717,264.725189 1047.725952,265.119324 1038.130493,271.820587 
	C1034.540649,274.327759 1033.419800,276.486847 1032.862427,280.703583 
	C1031.530884,290.776855 1035.146484,296.514587 1044.673096,300.102539 
	C1052.713989,303.130859 1056.118042,303.305634 1063.321167,296.861359 
	C1059.339233,294.656281 1055.471802,292.514557 1052.143555,289.621674 
M218.250900,236.592804 
	C216.528229,241.050522 214.631134,245.449875 213.115891,249.977020 
	C208.739700,263.051971 207.724258,276.694885 211.097885,289.811615 
	C214.249252,302.064026 221.785004,312.359161 231.468307,320.942810 
	C235.915375,324.884857 239.597519,329.566986 238.437637,336.520264 
	C238.129898,338.365204 240.211578,340.608734 241.196136,342.669250 
	C241.901703,342.495361 242.607254,342.321472 243.312805,342.147583 
	C243.695282,339.291412 244.447327,336.425659 244.373581,333.581299 
	C244.262924,329.314178 245.681778,326.222015 248.584946,322.949951 
	C254.144958,316.683441 259.348938,309.994293 263.887817,302.956329 
	C269.251343,294.639679 270.499451,285.024200 270.820923,275.226440 
	C271.170044,264.586670 268.940033,254.642731 264.776855,244.880081 
	C260.114502,233.946899 252.281189,225.354477 245.051849,216.273468 
	C243.458908,214.272491 241.958359,212.197968 239.450653,208.881699 
	C232.069534,218.480484 225.351593,227.216858 218.250900,236.592804 
M710.371094,256.197906 
	C704.778381,255.981232 701.406372,258.923187 700.607971,264.152832 
	C699.940430,268.525543 699.589478,273.159637 700.317261,277.472321 
	C701.042664,281.771454 699.430847,283.195099 695.953491,284.807739 
	C691.646790,286.804871 687.364502,289.242096 683.782654,292.317291 
	C679.203674,296.248566 679.061707,301.229584 683.490479,305.371094 
	C686.924561,308.582428 691.153198,311.180145 695.435791,313.177673 
	C699.272949,314.967407 701.009460,316.628479 700.151184,321.275146 
	C699.387817,325.407623 699.665466,329.939911 700.468872,334.105713 
	C701.686890,340.421326 706.701477,343.471191 712.808838,341.424835 
	C717.284058,339.925385 721.537048,337.406921 725.450562,334.707031 
	C728.236633,332.784973 729.850891,332.573059 732.728394,334.729218 
	C736.504211,337.558563 740.848511,339.904388 745.292908,341.495209 
	C750.559753,343.380341 755.731445,340.507385 756.789246,335.012543 
	C757.745789,330.043884 757.870300,324.783447 757.448853,319.727753 
	C757.171509,316.400970 758.076538,315.058746 760.886536,313.663971 
	C765.307739,311.469421 769.869873,309.184265 773.570679,306.004364 
	C778.608948,301.675171 778.501526,296.059418 773.368042,291.855286 
	C769.583679,288.756104 765.078369,286.381409 760.593079,284.348328 
	C757.560791,282.973877 756.924622,281.374023 757.162476,278.267639 
	C757.526733,273.509308 757.686462,268.640381 757.082703,263.927338 
	C756.354980,258.246887 751.126404,254.695816 745.771179,256.494232 
	C741.152527,258.045319 736.805298,260.676117 732.694397,263.372681 
	C729.905518,265.202057 728.063293,265.303680 725.162048,263.443207 
	C720.759216,260.619843 715.823792,258.627106 710.371094,256.197906 
M987.683899,275.672974 
	C987.636475,280.836639 987.400635,286.009735 987.659058,291.158051 
	C987.734375,292.657990 988.856445,294.659851 990.116028,295.461090 
	C1004.515930,304.620575 1004.547546,304.570068 1019.555176,297.035156 
	C1020.447083,296.587372 1021.620728,296.375397 1022.185730,295.670837 
	C1023.306641,294.272980 1024.870605,292.620697 1024.896973,291.050903 
	C1025.114380,278.056946 1025.081177,265.057190 1024.935669,252.061264 
	C1024.920288,250.695694 1024.045654,248.773544 1022.955933,248.094696 
	C1019.948425,246.220856 1016.615417,244.869461 1012.442139,242.840286 
	C1012.442139,251.648819 1012.442139,259.489807 1012.442139,267.140289 
	C1009.229187,266.761688 1006.328308,265.504395 1004.330933,266.358887 
	C998.706848,268.764862 993.454346,272.039307 987.683899,275.672974 
M756.165833,677.712830 
	C755.795105,678.262695 755.481506,678.863342 755.045166,679.355042 
	C746.916687,688.514587 751.788757,703.099792 760.439636,707.575684 
	C770.055237,712.550659 777.716736,711.005066 785.780396,702.526550 
	C798.043518,689.632446 791.376343,674.533264 776.928406,669.706604 
	C768.930298,667.034607 762.289551,671.653870 756.165833,677.712830 
M945.521545,295.885986 
	C949.367859,297.867340 953.133545,300.036804 957.099915,301.738342 
	C958.707947,302.428223 961.025146,302.748352 962.548950,302.111084 
	C967.142456,300.190125 971.592834,297.871552 975.930298,295.410553 
	C979.598572,293.329224 980.780640,276.575714 977.611450,273.840820 
	C977.117981,273.414978 976.441162,273.209869 975.898010,272.832306 
	C966.539978,266.327393 957.126099,263.359528 947.390320,272.175812 
	C946.556396,272.930908 945.147949,273.070160 944.358765,273.851440 
	C943.385925,274.814575 942.186096,276.120544 942.124573,277.331238 
	C941.879761,282.145813 941.848633,286.994110 942.177307,291.799866 
	C942.265625,293.090179 943.906128,294.274323 945.521545,295.885986 
M896.278992,292.283569 
	C896.404968,294.637939 896.530884,296.992340 896.664795,299.495453 
	C904.997864,296.894806 911.027161,293.439545 909.043823,283.742767 
	C908.807678,282.587982 910.042786,280.203308 911.039856,279.912903 
	C913.325867,279.247101 915.952820,279.121063 918.319397,279.512634 
	C921.722107,280.075653 921.084717,283.064270 921.092163,285.515015 
	C921.118347,294.173248 924.615479,297.976776 933.715515,298.810760 
	C933.715515,292.992615 933.194580,287.145294 933.862427,281.437042 
	C934.525330,275.771271 931.684937,273.708069 927.486084,270.807861 
	C918.631287,264.691650 910.976807,265.431122 902.191895,270.948273 
	C897.755005,273.734741 895.631042,276.245483 896.216431,281.375092 
	C896.591003,284.657532 896.283325,288.017883 896.278992,292.283569 
M974.922241,467.619751 
	C974.003906,466.316467 973.085510,465.013184 972.167114,463.709930 
	C971.592041,465.115662 970.692200,466.482178 970.516479,467.936157 
	C970.238525,470.235626 970.447205,472.593719 970.447937,474.927002 
	C970.449036,478.251465 970.448181,481.575897 970.448181,484.900360 
	C969.750610,485.069366 969.053040,485.238373 968.355408,485.407410 
	C967.164612,483.802551 965.926147,482.230560 964.791748,480.586761 
	C961.333069,475.574585 958.007263,470.466522 954.404602,465.561218 
	C953.652405,464.537079 951.935242,464.221649 950.662842,463.579651 
	C950.184082,464.872681 949.310486,466.159729 949.290771,467.459686 
	C949.165405,475.753693 949.134094,484.052673 949.316223,492.344604 
	C949.348572,493.821045 950.524109,495.272369 951.171814,496.735291 
	C951.929993,495.141724 953.255493,493.575104 953.332642,491.949249 
	C953.513062,488.145905 952.971680,484.313446 952.993286,480.494293 
	C952.999817,479.341034 953.723022,478.052185 954.482239,477.123169 
	C954.727539,476.822906 956.508728,477.179016 956.951721,477.738281 
	C959.456970,480.901276 961.802490,484.193573 964.136292,487.488647 
	C965.952576,490.053040 967.535400,492.796875 969.508301,495.228699 
	C970.211304,496.095184 971.861145,496.804749 972.882202,496.600922 
	C973.644226,496.448761 974.566467,494.729767 974.601685,493.681122 
	C974.884155,485.265564 974.972839,476.843506 974.922241,467.619751 
M233.106094,468.273407 
	C232.295135,466.270569 231.725830,464.114777 230.588760,462.318329 
	C229.823242,461.108887 228.255432,460.407257 227.046570,459.478424 
	C226.414490,460.858093 225.262970,462.227570 225.235779,463.619049 
	C225.076416,471.774750 225.110443,479.936951 225.268921,488.093292 
	C225.292877,489.325806 226.309402,490.539093 226.866806,491.761261 
	C227.547256,490.499023 228.773331,489.254791 228.815598,487.971527 
	C229.020660,481.747589 228.908173,475.513214 228.908173,469.282562 
	C229.329590,469.191711 229.751022,469.100891 230.172440,469.010040 
	C232.708389,474.886292 235.132523,480.814850 237.843018,486.609436 
	C238.749344,488.547028 240.387192,490.142365 241.690643,491.894165 
	C242.841187,490.235931 244.257111,488.700714 245.093628,486.896881 
	C247.842636,480.968842 250.381485,474.943329 253.001068,468.955292 
	C254.187012,475.672363 254.112671,482.106018 254.259903,488.534576 
	C254.284546,489.610931 255.270065,490.665253 255.811600,491.729767 
	C256.475464,490.789368 257.700256,489.858124 257.715759,488.907135 
	C257.859619,480.084412 257.860870,471.257141 257.700897,462.434845 
	C257.682648,461.428558 256.421967,460.444824 255.737381,459.450623 
	C254.748032,460.195557 253.368149,460.734314 252.844910,461.725342 
	C251.452194,464.363312 250.437683,467.200043 249.255951,469.950470 
	C246.890442,475.456146 244.513687,480.956970 241.630859,487.644562 
	C238.466461,480.491577 235.921280,474.738281 233.106094,468.273407 
M438.691223,304.899445 
	C438.695648,313.880219 438.611359,322.862671 438.777313,331.840454 
	C438.811615,333.697144 439.776520,335.536652 440.312469,337.384094 
	C440.956085,335.443207 441.971313,333.537506 442.159393,331.553436 
	C442.469025,328.286560 442.243317,324.968964 442.243317,320.786652 
	C450.100739,326.676056 456.763489,326.718719 461.367706,321.856689 
	C465.730499,317.249573 466.174133,307.970001 461.797241,302.983765 
	C460.168762,301.128571 457.410034,299.150146 455.186676,299.172974 
	C451.017792,299.215820 446.863495,300.676056 442.513885,301.586395 
	C442.210022,301.225464 441.284271,300.125885 440.358459,299.026306 
	C439.809448,300.360229 439.240540,301.686584 438.727234,303.034088 
	C438.616241,303.325562 438.705566,303.693298 438.691223,304.899445 
M977.154053,317.735870 
	C976.950134,316.309082 976.746277,314.882263 976.542358,313.455475 
	C975.966675,313.512573 975.391052,313.569702 974.815369,313.626801 
	C974.815369,317.530151 975.117188,321.467133 974.687622,325.322632 
	C974.473755,327.241974 972.885376,330.581543 971.978149,330.561676 
	C969.000916,330.496704 966.369324,329.105927 966.058594,325.219696 
	C965.013428,312.147186 965.256042,312.685791 976.060486,306.189758 
	C984.400940,301.175140 989.454834,307.492462 995.635010,310.069000 
	C1000.346619,312.033295 998.766418,316.604950 998.728455,320.210022 
	C998.698242,323.084473 998.617981,327.725952 997.042786,328.501465 
	C991.158447,331.398376 986.205933,338.082703 978.185791,334.664032 
	C977.768982,334.486359 976.951721,335.247955 976.055298,335.708832 
	C979.667603,339.183319 983.100952,339.844635 987.147095,337.369476 
	C990.265320,335.461975 993.480347,333.636505 996.840820,332.222473 
	C1000.327881,330.755188 1000.799683,328.290833 1001.317871,324.839264 
	C1002.984802,313.735229 999.449646,306.677582 988.319397,302.915192 
	C983.796143,301.386200 980.245728,300.927521 976.097107,302.987396 
	C963.169128,309.406433 963.526978,309.378296 962.989624,323.664825 
	C962.768066,329.553864 965.410645,331.660339 970.149536,333.103821 
	C974.747803,334.504395 977.374878,332.878662 977.465027,328.116791 
	C977.524780,324.961243 977.261414,321.799591 977.154053,317.735870 
M504.152618,321.134674 
	C496.081970,323.996643 490.833282,320.966553 490.757477,312.976257 
	C495.543274,312.976257 500.344147,312.749176 505.115662,313.027100 
	C513.175720,313.496582 513.123169,310.008026 509.829224,304.467896 
	C508.291565,301.881714 504.606964,299.802460 501.521576,299.071228 
	C495.662354,297.682678 490.882111,300.249969 488.367340,304.804199 
	C485.655518,309.715302 486.089813,317.362335 489.607452,321.302063 
	C493.291595,325.428223 498.073578,326.381195 503.278259,324.968475 
	C507.537018,323.812531 510.559967,321.339996 511.119873,316.754425 
	C510.736755,316.372223 510.353638,315.989990 509.970520,315.607788 
	C508.272949,317.335114 506.575378,319.062408 504.152618,321.134674 
M461.915497,492.165436 
	C462.918091,491.668945 463.920715,491.172455 464.923309,490.675964 
	C463.943939,490.157349 462.983612,489.239075 461.981842,489.191345 
	C458.237610,489.013184 454.479767,489.120148 450.953705,489.120148 
	C450.953705,484.645752 450.953705,480.914032 450.953705,476.863678 
	C455.275940,476.863678 459.220581,476.863678 464.405212,476.863678 
	C460.080048,471.718933 454.724823,475.605072 450.920288,473.272461 
	C450.920288,469.589417 450.920288,465.865662 450.920288,461.586884 
	C455.764893,461.586884 460.298462,461.586884 464.832031,461.586884 
	C464.860870,460.927612 464.889740,460.268311 464.918610,459.609039 
	C459.208740,457.857971 453.207184,459.193176 447.171387,458.862854 
	C447.171387,470.227600 447.171387,481.081238 447.171387,492.169708 
	C452.044739,492.169708 456.532196,492.169708 461.915497,492.165436 
M404.066071,306.817627 
	C401.623047,306.817627 399.180023,306.817627 396.415680,306.817627 
	C396.415680,302.541779 396.415680,298.839172 396.415680,294.905151 
	C401.256897,294.643463 405.918213,294.391510 410.579498,294.139526 
	C410.542236,293.499329 410.505005,292.859131 410.467743,292.218933 
	C404.489624,292.218933 398.511505,292.218933 392.593933,292.218933 
	C392.593933,303.235840 392.593933,313.967987 392.593933,324.606445 
	C398.750702,324.606445 404.588409,324.606445 410.595398,324.606445 
	C410.426788,323.710083 410.382324,322.858154 410.247009,322.843475 
	C405.736938,322.353729 401.218201,321.943970 396.398071,321.494293 
	C396.398071,317.719757 396.398071,314.002014 396.398071,309.852081 
	C399.359589,309.852081 402.170380,310.015472 404.947845,309.782135 
	C406.308594,309.667816 407.607452,308.816528 408.934357,308.298798 
	C407.616852,307.805267 406.299347,307.311707 404.066071,306.817627 
M545.685547,299.200806 
	C542.189148,300.462799 539.430359,303.027313 540.614136,306.584412 
	C541.438843,309.062439 544.453857,311.031708 546.864136,312.682587 
	C548.408325,313.740204 550.941772,313.366119 552.464539,314.438873 
	C553.970215,315.499512 555.835815,317.779022 555.572510,319.143433 
	C555.298889,320.561218 552.559875,322.585388 551.086182,322.440552 
	C548.762085,322.212036 546.548584,320.471680 544.378967,319.214691 
	C543.210632,318.537811 542.231018,317.535278 541.166260,316.679657 
	C542.475220,324.211914 548.717224,327.589905 554.690613,324.698273 
	C556.746521,323.703064 558.893982,320.581146 558.932617,318.394257 
	C558.970215,316.263336 556.723511,313.651581 554.805481,312.067230 
	C553.293945,310.818634 550.617065,311.097656 548.717834,310.167297 
	C546.958374,309.305359 545.108582,307.991547 544.169739,306.371826 
	C543.731689,305.616119 545.149536,302.646484 546.078857,302.462616 
	C548.331909,302.016846 550.867737,302.328979 553.132874,302.928223 
	C554.112976,303.187500 554.553162,305.089417 555.522522,305.909668 
	C556.338806,306.600525 557.566040,306.805847 559.254272,307.484528 
	C556.734192,299.821289 554.514954,298.508331 545.685547,299.200806 
M530.156982,321.751984 
	C525.872803,323.648102 522.542297,322.765198 519.992981,318.645020 
	C519.444885,317.759125 517.853821,317.518555 515.919800,316.582031 
	C518.691895,324.283142 523.813904,327.264526 529.972656,324.846436 
	C532.203552,323.970520 534.640747,320.898804 534.915039,318.583923 
	C535.153198,316.574493 532.871216,313.728699 530.957336,312.165436 
	C529.308105,310.818359 526.612000,310.742065 524.370789,310.133362 
	C521.813782,309.438934 519.396179,308.495972 520.066833,305.180145 
	C520.757080,301.767029 523.557739,301.135803 526.251892,301.888519 
	C528.096252,302.403839 529.574097,304.194031 531.249084,305.366699 
	C532.269226,306.080994 533.352661,306.704895 535.035095,307.764557 
	C534.120911,299.310516 526.370483,297.506378 522.047058,299.294342 
	C519.704773,300.263031 516.889282,303.176727 516.713867,305.404144 
	C516.547058,307.521942 519.158630,310.384460 521.257629,311.996002 
	C523.090881,313.403473 525.968811,313.373291 528.281372,314.251587 
	C531.617981,315.518860 533.201782,317.649353 530.156982,321.751984 
M428.121826,309.014587 
	C430.111755,305.860901 432.101685,302.707214 434.489594,298.922821 
	C427.414703,299.017090 427.979645,306.015381 424.077545,308.238068 
	C420.179047,306.008118 420.259338,299.131226 413.164825,298.972107 
	C415.428650,302.422821 416.878418,305.252716 418.908539,307.575348 
	C421.648682,310.710297 421.053925,313.337646 418.834930,316.344696 
	C416.935059,318.919281 415.380341,321.748627 413.329102,325.012421 
	C420.485565,325.111298 419.706146,317.897400 423.647156,315.813782 
	C427.709686,318.058624 427.476013,325.315948 434.559235,324.904297 
	C432.063202,321.129333 429.670563,317.932159 427.797638,314.455048 
	C427.120544,313.198059 427.688843,311.270172 428.121826,309.014587 
M477.987732,299.729706 
	C476.794647,300.543610 475.601562,301.357513 474.920868,301.821869 
	C473.774567,300.741058 472.858826,299.877594 471.943024,299.014130 
	C471.332275,300.144287 470.222656,301.261536 470.193024,302.406769 
	C470.021545,309.035431 469.994171,315.674438 470.219208,322.299713 
	C470.253479,323.309723 471.855255,324.266449 472.732025,325.247833 
	C473.898865,320.007874 473.923035,315.705536 473.892365,311.403625 
	C473.858459,306.648468 475.737793,303.520447 480.727264,302.531616 
	C481.855042,302.308136 482.764954,300.985291 483.775177,300.168488 
	C483.458832,299.670166 483.142487,299.171814 482.826141,298.673462 
	C481.425262,298.916412 480.024384,299.159363 477.987732,299.729706 
M994.086853,317.256134 
	C993.027649,311.709137 988.601013,311.951996 984.792236,312.583435 
	C982.854553,312.904755 981.272400,315.370514 979.529541,316.866913 
	C981.305298,318.241974 982.929077,319.921143 984.899902,320.905731 
	C986.837036,321.873505 989.126404,322.136139 992.492310,323.038116 
	C986.804443,327.030487 983.232605,323.829071 979.234131,322.146759 
	C980.798279,327.411957 985.571838,329.545776 990.994629,327.524597 
	C992.624695,326.917053 994.661926,324.643616 994.638855,323.162567 
	C994.617249,321.779358 992.328003,319.935211 990.641479,319.195984 
	C988.373657,318.202026 985.726318,318.073883 983.241821,317.574097 
	C983.239380,317.042847 983.236877,316.511597 983.234375,315.980347 
	C984.826172,315.669922 986.515991,314.872528 987.985657,315.168518 
	C989.956299,315.565491 991.756592,316.808197 994.086853,317.256134 
M1005.861328,308.265656 
	C1003.508484,309.836578 1003.193481,311.858490 1005.557190,313.333099 
	C1006.339050,313.820770 1008.277222,312.454742 1009.686707,311.936310 
	C1008.664062,310.657288 1007.641479,309.378235 1005.861328,308.265656 
z"/>
<path fill="#2B2E37" opacity="1.000000" stroke="none" 
	d="
M1281.000000,594.531311 
	C1279.541382,596.014160 1277.704224,596.741089 1276.682739,598.086975 
	C1266.335327,611.720215 1254.044189,623.366150 1239.300171,631.917358 
	C1215.350830,645.807312 1189.827515,649.826172 1162.592651,642.869446 
	C1148.000000,639.141968 1134.873657,632.477417 1122.974121,623.892334 
	C1113.931763,617.368591 1106.215698,608.848755 1098.561646,600.611145 
	C1093.084839,594.716736 1088.355713,588.040222 1083.881958,581.320618 
	C1075.875488,569.295166 1070.858398,555.828003 1069.253906,541.603943 
	C1068.018311,530.648499 1067.703003,519.237610 1069.399536,508.408478 
	C1070.902100,498.816803 1075.249878,489.531097 1079.224365,480.498810 
	C1085.389526,466.488129 1095.328979,455.063812 1106.653809,445.007629 
	C1117.341187,435.517487 1129.024170,427.398865 1142.713013,422.552704 
	C1155.340698,418.082123 1168.190186,415.139221 1181.685913,416.010559 
	C1195.378418,416.894623 1208.252319,420.333527 1220.638306,426.575653 
	C1234.762085,433.693451 1245.527344,444.520294 1256.148560,455.685516 
	C1260.905029,460.685547 1261.057251,461.702393 1256.148926,466.662750 
	C1242.874023,480.078705 1229.332031,493.229950 1215.982544,506.572906 
	C1206.595459,515.955261 1197.416260,525.545593 1188.025391,534.924011 
	C1176.069946,546.863586 1163.981567,558.669861 1151.976074,570.559448 
	C1145.600952,576.873047 1139.301392,583.262939 1132.922852,589.572937 
	C1130.547852,591.922424 1130.425537,594.184753 1132.951172,596.402527 
	C1149.769287,611.170593 1168.676880,621.134338 1191.672974,620.949829 
	C1211.340332,620.792053 1228.437622,613.368530 1242.318604,599.836060 
	C1250.437134,591.921265 1258.101807,582.978699 1263.748657,573.213562 
	C1273.950439,555.572144 1275.236206,536.389771 1268.075195,517.066772 
	C1266.653687,513.231140 1263.955322,509.885498 1262.188110,506.151886 
	C1261.587036,504.881927 1261.359985,502.448273 1262.115234,501.679443 
	C1268.023438,495.665710 1274.212646,489.927887 1280.657471,484.052429 
	C1281.000000,520.687561 1281.000000,557.375122 1281.000000,594.531311 
M1098.109009,495.776367 
	C1096.997803,499.596344 1095.738892,503.380524 1094.803223,507.242981 
	C1091.862793,519.382446 1091.902344,531.543884 1095.512329,543.518066 
	C1099.078857,555.347656 1105.322266,565.800232 1112.815308,575.574036 
	C1118.190186,582.584839 1119.729980,582.801147 1125.979492,576.511230 
	C1141.692993,560.695862 1157.340332,544.814453 1173.108276,529.053528 
	C1191.586914,510.583099 1210.149536,492.196411 1228.724121,473.822449 
	C1230.575928,471.990631 1231.318237,470.426575 1229.043213,468.478058 
	C1223.048828,463.344025 1217.483643,457.585236 1211.003296,453.166595 
	C1194.662598,442.024292 1176.445801,439.033386 1157.348755,443.788330 
	C1129.121094,450.816650 1110.744629,469.551819 1098.109009,495.776367 
z"/>
<path fill="#2B2E37" opacity="1.000000" stroke="none" 
	d="
M1049.468628,721.000000 
	C1048.020508,717.898926 1047.294189,714.689270 1046.018921,711.714966 
	C1039.348022,696.154358 1032.505981,680.667114 1025.785400,665.127747 
	C1019.859985,651.427185 1014.064880,637.670105 1008.117493,623.979187 
	C1004.621338,615.930908 1000.905884,607.978210 997.351868,599.954712 
	C993.394348,591.020508 989.415588,582.092773 985.709717,573.054077 
	C985.252014,571.937744 985.970398,569.737732 986.899719,568.753967 
	C992.024963,563.328552 997.381775,558.121704 1002.665833,552.846558 
	C1005.044434,550.471924 1006.755737,550.528809 1008.205322,553.940552 
	C1012.208801,563.363464 1016.429321,572.693848 1020.523010,582.078796 
	C1026.677856,596.189148 1032.850708,610.292114 1038.912964,624.442261 
	C1042.559814,632.954468 1045.960571,641.571716 1049.564941,650.102539 
	C1053.248169,658.819885 1057.135010,667.451782 1060.772095,676.187988 
	C1066.875122,690.847046 1072.850952,705.559082 1078.940186,720.624390 
	C1069.312378,721.000000 1059.624878,721.000000 1049.468628,721.000000 
z"/>
<path fill="#2B2E37" opacity="1.000000" stroke="none" 
	d="
M1281.000000,404.531311 
	C1279.396484,403.894989 1277.585205,403.000061 1276.222412,401.651764 
	C1265.161377,390.708801 1254.176880,379.688019 1243.183716,368.676483 
	C1234.678345,360.157043 1226.133301,351.675079 1217.794800,342.994965 
	C1216.967163,342.133453 1216.739624,339.365784 1217.450562,338.570038 
	C1222.305908,333.135620 1227.546753,328.048126 1232.534058,322.727692 
	C1234.587524,320.536957 1236.294800,320.467407 1238.387207,322.596588 
	C1245.108521,329.435822 1251.922241,336.184082 1258.647705,343.019165 
	C1260.930054,345.338745 1263.056274,347.811768 1265.253906,350.214661 
	C1265.655273,349.923126 1266.056641,349.631622 1266.457886,349.340118 
	C1265.869751,346.113007 1265.779297,342.690826 1264.604370,339.693726 
	C1260.292725,328.695892 1262.490479,317.743317 1264.291016,306.764893 
	C1266.163208,295.350433 1271.203857,285.221100 1277.332397,275.582123 
	C1277.991577,274.545441 1279.301270,273.922455 1280.654541,273.053772 
	C1281.000000,316.687561 1281.000000,360.375122 1281.000000,404.531311 
z"/>
<path fill="#2B2E37" opacity="1.000000" stroke="none" 
	d="
M903.468628,721.000000 
	C898.753479,718.644104 894.652893,715.959229 890.231140,713.998535 
	C879.932251,709.431641 869.476379,705.218994 859.094299,700.838684 
	C858.511719,700.593018 858.020935,700.129578 857.149841,699.538208 
	C857.779175,698.477844 858.169739,697.397827 858.901733,696.653503 
	C864.371338,691.091370 869.739502,685.406494 875.546936,680.215942 
	C876.947449,678.964050 880.240906,678.506409 882.035645,679.233704 
	C893.803894,684.003052 905.433044,689.122986 917.042969,694.274109 
	C929.449280,699.778625 941.800781,705.407776 954.143982,711.052979 
	C960.737976,714.068665 967.263977,717.232666 973.910339,720.664856 
	C950.645752,721.000000 927.291565,721.000000 903.468628,721.000000 
z"/>
<path fill="#139851" opacity="1.000000" stroke="none" 
	d="
M218.442261,236.273026 
	C225.351593,227.216858 232.069534,218.480484 239.450653,208.881699 
	C241.958359,212.197968 243.458908,214.272491 245.051849,216.273468 
	C252.281189,225.354477 260.114502,233.946899 264.776855,244.880081 
	C268.940033,254.642731 271.170044,264.586670 270.820923,275.226440 
	C270.499451,285.024200 269.251343,294.639679 263.887817,302.956329 
	C259.348938,309.994293 254.144958,316.683441 248.584946,322.949951 
	C245.681778,326.222015 244.262924,329.314178 244.373581,333.581299 
	C244.447327,336.425659 243.695282,339.291412 243.312805,342.147583 
	C242.607254,342.321472 241.901703,342.495361 241.196136,342.669250 
	C240.211578,340.608734 238.129898,338.365204 238.437637,336.520264 
	C239.597519,329.566986 235.915375,324.884857 231.468307,320.942810 
	C221.785004,312.359161 214.249252,302.064026 211.097885,289.811615 
	C207.724258,276.694885 208.739700,263.051971 213.115891,249.977020 
	C214.631134,245.449875 216.528229,241.050522 218.442261,236.273026 
z"/>
<path fill="#6FC5DD" opacity="1.000000" stroke="none" 
	d="
M710.742859,256.239716 
	C715.823792,258.627106 720.759216,260.619843 725.162048,263.443207 
	C728.063293,265.303680 729.905518,265.202057 732.694397,263.372681 
	C736.805298,260.676117 741.152527,258.045319 745.771179,256.494232 
	C751.126404,254.695816 756.354980,258.246887 757.082703,263.927338 
	C757.686462,268.640381 757.526733,273.509308 757.162476,278.267639 
	C756.924622,281.374023 757.560791,282.973877 760.593079,284.348328 
	C765.078369,286.381409 769.583679,288.756104 773.368042,291.855286 
	C778.501526,296.059418 778.608948,301.675171 773.570679,306.004364 
	C769.869873,309.184265 765.307739,311.469421 760.886536,313.663971 
	C758.076538,315.058746 757.171509,316.400970 757.448853,319.727753 
	C757.870300,324.783447 757.745789,330.043884 756.789246,335.012543 
	C755.731445,340.507385 750.559753,343.380341 745.292908,341.495209 
	C740.848511,339.904388 736.504211,337.558563 732.728394,334.729218 
	C729.850891,332.573059 728.236633,332.784973 725.450562,334.707031 
	C721.537048,337.406921 717.284058,339.925385 712.808838,341.424835 
	C706.701477,343.471191 701.686890,340.421326 700.468872,334.105713 
	C699.665466,329.939911 699.387817,325.407623 700.151184,321.275146 
	C701.009460,316.628479 699.272949,314.967407 695.435791,313.177673 
	C691.153198,311.180145 686.924561,308.582428 683.490479,305.371094 
	C679.061707,301.229584 679.203674,296.248566 683.782654,292.317291 
	C687.364502,289.242096 691.646790,286.804871 695.953491,284.807739 
	C699.430847,283.195099 701.042664,281.771454 700.317261,277.472321 
	C699.589478,273.159637 699.940430,268.525543 700.607971,264.152832 
	C701.406372,258.923187 704.778381,255.981232 710.742859,256.239716 
M733.032104,279.033905 
	C733.032104,279.033905 732.916870,279.054047 733.117676,278.367706 
	C731.778748,276.620850 730.439819,274.874023 728.814514,272.753540 
	C727.023193,275.003204 725.668030,276.705109 723.834351,279.007935 
	C727.519897,279.007935 730.246094,279.007935 733.032104,279.033905 
M743.946594,284.987915 
	C743.946594,284.987915 744.071411,284.964355 743.892334,285.684113 
	C745.199951,288.120514 746.507568,290.556946 748.332458,293.957184 
	C749.500793,290.806763 750.265991,288.743622 751.304932,285.942108 
	C748.493774,285.564636 746.259583,285.264618 743.946594,284.987915 
M739.819580,287.528564 
	C738.398438,286.303497 737.136047,284.306702 735.530701,283.976379 
	C723.530457,281.506866 719.878418,283.323547 714.088196,293.996979 
	C713.614502,294.870117 712.922485,295.728760 712.789917,296.659424 
	C712.572021,298.188812 712.271667,299.950104 712.799744,301.304077 
	C717.626404,313.679504 719.471313,314.840240 732.476196,314.327423 
	C732.973083,314.307831 733.569641,314.504517 733.952515,314.294952 
	C735.824524,313.270233 738.111511,312.532593 739.394592,310.983459 
	C745.436646,303.688568 747.513550,296.045654 739.819580,287.528564 
M702.921326,309.341492 
	C703.668518,307.327301 704.169495,305.174805 705.208679,303.324615 
	C708.433533,297.583191 704.019653,293.284668 702.506714,288.471069 
	C702.363770,288.016235 700.312622,287.609009 699.556213,287.990448 
	C695.304688,290.133972 690.941833,292.204437 687.136169,295.005341 
	C685.780029,296.003479 684.995972,299.221130 685.486023,301.003418 
	C686.740479,305.564972 697.528687,310.889954 702.921326,309.341492 
M753.255981,292.726044 
	C748.760437,299.523376 753.704956,304.784119 756.083801,311.899658 
	C761.460876,308.584229 766.346558,305.922241 770.820557,302.690338 
	C773.815735,300.526703 773.737061,297.230743 770.721680,295.134186 
	C766.198669,291.989441 761.284180,289.407776 755.953735,286.240601 
	C754.806152,289.022430 754.191833,290.511475 753.255981,292.726044 
M738.688354,319.906708 
	C736.541016,322.756378 734.393616,325.606049 731.656616,329.238251 
	C736.359802,332.023712 740.381104,334.949738 744.832153,336.890411 
	C749.401733,338.882721 752.406616,337.270294 753.080627,332.297455 
	C753.766174,327.239349 753.232056,322.015900 753.232056,315.995880 
	C747.731384,317.293610 743.455811,318.302338 738.688354,319.906708 
M705.733032,316.943146 
	C705.244751,321.952393 704.156799,326.995697 704.439026,331.961151 
	C704.714111,336.801239 707.983704,338.791168 712.523315,336.941040 
	C717.283508,335.001068 721.578369,331.919312 725.841675,329.471497 
	C721.769653,320.304840 715.349854,316.671478 705.733032,316.943146 
M723.690369,272.386932 
	C723.777649,270.936096 724.490601,268.660126 723.847473,268.172455 
	C720.453430,265.598969 716.922363,263.007660 713.048950,261.314667 
	C708.108521,259.155304 704.771729,261.121948 704.324707,266.485413 
	C703.910400,271.456543 704.526917,276.513641 704.690552,281.564545 
	C712.686340,280.828156 719.763550,280.528290 723.690369,272.386932 
M742.710266,280.104095 
	C745.890808,280.587067 749.071289,281.070038 753.215149,281.699310 
	C753.215149,276.037292 753.662964,271.091919 753.095703,266.265900 
	C752.462402,260.877472 749.161377,259.010132 744.246582,261.311432 
	C739.871216,263.360168 735.963074,266.406677 730.845337,269.648315 
	C735.137207,273.687500 738.516541,276.867889 742.710266,280.104095 
M708.096436,307.236572 
	C707.634827,308.772247 707.173218,310.307922 706.536926,312.424866 
	C709.341919,312.850891 711.582031,313.191101 714.761597,313.674011 
	C712.675781,310.047424 711.214417,307.506592 709.595337,304.691589 
	C709.020081,305.559265 708.671265,306.085327 708.096436,307.236572 
M750.670410,309.850006 
	C750.032532,308.247803 749.394653,306.645630 748.372253,304.077667 
	C746.418518,307.560791 744.964294,310.153320 743.510071,312.745880 
	C743.818176,313.172821 744.126282,313.599762 744.434387,314.026672 
	C746.579529,312.881409 748.724670,311.736145 750.670410,309.850006 
M708.312927,291.425903 
	C708.672852,291.940277 709.032837,292.454651 709.655884,293.344940 
	C711.218933,290.558838 712.615662,288.069305 714.598694,284.534637 
	C711.242981,285.169403 709.101318,285.574554 706.569702,286.053436 
	C707.196594,288.023163 707.637268,289.407684 708.312927,291.425903 
M728.091675,324.233215 
	C729.967834,322.857086 731.843994,321.480988 733.720154,320.104858 
	C733.448486,319.748016 733.176758,319.391205 732.905090,319.034363 
	C730.226440,319.034363 727.547729,319.034363 723.880737,319.034363 
	C725.463928,321.056976 726.524780,322.412292 728.091675,324.233215 
z"/>
<path fill="#F2F3F3" opacity="1.000000" stroke="none" 
	d="
M987.869629,275.322144 
	C993.454346,272.039307 998.706848,268.764862 1004.330933,266.358887 
	C1006.328308,265.504395 1009.229187,266.761688 1012.442139,267.140289 
	C1012.442139,259.489807 1012.442139,251.648819 1012.442139,242.840286 
	C1016.615417,244.869461 1019.948425,246.220856 1022.955933,248.094696 
	C1024.045654,248.773544 1024.920288,250.695694 1024.935669,252.061264 
	C1025.081177,265.057190 1025.114380,278.056946 1024.896973,291.050903 
	C1024.870605,292.620697 1023.306641,294.272980 1022.185730,295.670837 
	C1021.620728,296.375397 1020.447083,296.587372 1019.555176,297.035156 
	C1004.547546,304.570068 1004.515930,304.620575 990.116028,295.461090 
	C988.856445,294.659851 987.734375,292.657990 987.659058,291.158051 
	C987.400635,286.009735 987.636475,280.836639 987.869629,275.322144 
M1002.976074,279.794281 
	C1000.169495,281.589050 998.685242,286.142853 1000.675537,287.859741 
	C1003.508972,290.303986 1007.104309,292.185303 1010.214905,288.751373 
	C1011.662109,287.153839 1012.821960,283.415955 1011.940552,282.000488 
	C1010.355042,279.454315 1007.374756,277.074127 1002.976074,279.794281 
z"/>
<path fill="#2B2E37" opacity="1.000000" stroke="none" 
	d="
M756.366699,677.409424 
	C762.289551,671.653870 768.930298,667.034607 776.928406,669.706604 
	C791.376343,674.533264 798.043518,689.632446 785.780396,702.526550 
	C777.716736,711.005066 770.055237,712.550659 760.439636,707.575684 
	C751.788757,703.099792 746.916687,688.514587 755.045166,679.355042 
	C755.481506,678.863342 755.795105,678.262695 756.366699,677.409424 
z"/>
<path fill="#139851" opacity="1.000000" stroke="none" 
	d="
M945.177856,295.696594 
	C943.906128,294.274323 942.265625,293.090179 942.177307,291.799866 
	C941.848633,286.994110 941.879761,282.145813 942.124573,277.331238 
	C942.186096,276.120544 943.385925,274.814575 944.358765,273.851440 
	C945.147949,273.070160 946.556396,272.930908 947.390320,272.175812 
	C957.126099,263.359528 966.539978,266.327393 975.898010,272.832306 
	C976.441162,273.209869 977.117981,273.414978 977.611450,273.840820 
	C980.780640,276.575714 979.598572,293.329224 975.930298,295.410553 
	C971.592834,297.871552 967.142456,300.190125 962.548950,302.111084 
	C961.025146,302.748352 958.707947,302.428223 957.099915,301.738342 
	C953.133545,300.036804 949.367859,297.867340 945.177856,295.696594 
z"/>
<path fill="#F2F3F3" opacity="1.000000" stroke="none" 
	d="
M896.280273,291.813416 
	C896.283325,288.017883 896.591003,284.657532 896.216431,281.375092 
	C895.631042,276.245483 897.755005,273.734741 902.191895,270.948273 
	C910.976807,265.431122 918.631287,264.691650 927.486084,270.807861 
	C931.684937,273.708069 934.525330,275.771271 933.862427,281.437042 
	C933.194580,287.145294 933.715515,292.992615 933.715515,298.810760 
	C924.615479,297.976776 921.118347,294.173248 921.092163,285.515015 
	C921.084717,283.064270 921.722107,280.075653 918.319397,279.512634 
	C915.952820,279.121063 913.325867,279.247101 911.039856,279.912903 
	C910.042786,280.203308 908.807678,282.587982 909.043823,283.742767 
	C911.027161,293.439545 904.997864,296.894806 896.664795,299.495453 
	C896.530884,296.992340 896.404968,294.637939 896.280273,291.813416 
z"/>
<path fill="#F2F3F3" opacity="1.000000" stroke="none" 
	d="
M1051.604248,290.372833 
	C1055.471802,292.514557 1059.339233,294.656281 1063.321167,296.861359 
	C1056.118042,303.305634 1052.713989,303.130859 1044.673096,300.102539 
	C1035.146484,296.514587 1031.530884,290.776855 1032.862427,280.703583 
	C1033.419800,276.486847 1034.540649,274.327759 1038.130493,271.820587 
	C1047.725952,265.119324 1056.584717,264.725189 1065.849609,272.010895 
	C1067.984253,273.689484 1070.877319,274.150024 1070.796631,277.984772 
	C1070.719604,281.639191 1068.136230,282.201935 1065.853638,283.323853 
	C1063.506226,284.477661 1061.072021,285.454865 1058.396973,285.977356 
	C1057.955078,281.262421 1054.912598,277.841614 1051.562622,278.074677 
	C1047.715332,278.342285 1044.335693,282.397095 1045.843018,285.939575 
	C1046.669922,287.882660 1049.614502,288.924591 1051.604248,290.372833 
z"/>
<path fill="#139851" opacity="1.000000" stroke="none" 
	d="
M975.021484,468.021606 
	C974.972839,476.843506 974.884155,485.265564 974.601685,493.681122 
	C974.566467,494.729767 973.644226,496.448761 972.882202,496.600922 
	C971.861145,496.804749 970.211304,496.095184 969.508301,495.228699 
	C967.535400,492.796875 965.952576,490.053040 964.136292,487.488647 
	C961.802490,484.193573 959.456970,480.901276 956.951721,477.738281 
	C956.508728,477.179016 954.727539,476.822906 954.482239,477.123169 
	C953.723022,478.052185 952.999817,479.341034 952.993286,480.494293 
	C952.971680,484.313446 953.513062,488.145905 953.332642,491.949249 
	C953.255493,493.575104 951.929993,495.141724 951.171814,496.735291 
	C950.524109,495.272369 949.348572,493.821045 949.316223,492.344604 
	C949.134094,484.052673 949.165405,475.753693 949.290771,467.459686 
	C949.310486,466.159729 950.184082,464.872681 950.662842,463.579651 
	C951.935242,464.221649 953.652405,464.537079 954.404602,465.561218 
	C958.007263,470.466522 961.333069,475.574585 964.791748,480.586761 
	C965.926147,482.230560 967.164612,483.802551 968.355408,485.407410 
	C969.053040,485.238373 969.750610,485.069366 970.448181,484.900360 
	C970.448181,481.575897 970.449036,478.251465 970.447937,474.927002 
	C970.447205,472.593719 970.238525,470.235626 970.516479,467.936157 
	C970.692200,466.482178 971.592041,465.115662 972.167114,463.709900 
	C973.085510,465.013184 974.003906,466.316467 975.021484,468.021606 
z"/>
<path fill="#139851" opacity="1.000000" stroke="none" 
	d="
M233.241104,468.629211 
	C235.921280,474.738281 238.466461,480.491577 241.630859,487.644562 
	C244.513687,480.956970 246.890442,475.456146 249.255951,469.950470 
	C250.437683,467.200043 251.452194,464.363312 252.844910,461.725342 
	C253.368149,460.734314 254.748032,460.195557 255.737381,459.450623 
	C256.421967,460.444824 257.682648,461.428558 257.700897,462.434845 
	C257.860870,471.257141 257.859619,480.084412 257.715759,488.907135 
	C257.700256,489.858124 256.475464,490.789368 255.811600,491.729767 
	C255.270065,490.665253 254.284546,489.610931 254.259903,488.534576 
	C254.112671,482.106018 254.187012,475.672363 253.001068,468.955292 
	C250.381485,474.943329 247.842636,480.968842 245.093628,486.896881 
	C244.257111,488.700714 242.841187,490.235931 241.690643,491.894165 
	C240.387192,490.142365 238.749344,488.547028 237.843018,486.609436 
	C235.132523,480.814850 232.708389,474.886292 230.172440,469.010040 
	C229.751022,469.100891 229.329590,469.191711 228.908173,469.282562 
	C228.908173,475.513214 229.020660,481.747589 228.815598,487.971527 
	C228.773331,489.254791 227.547256,490.499023 226.866806,491.761261 
	C226.309402,490.539093 225.292877,489.325806 225.268921,488.093292 
	C225.110443,479.936951 225.076416,471.774750 225.235779,463.619049 
	C225.262970,462.227570 226.414490,460.858093 227.046570,459.478424 
	C228.255432,460.407257 229.823242,461.108887 230.588760,462.318329 
	C231.725830,464.114777 232.295135,466.270569 233.241104,468.629211 
z"/>
<path fill="#F2F3F3" opacity="1.000000" stroke="none" 
	d="
M438.696930,304.462677 
	C438.705566,303.693298 438.616241,303.325562 438.727234,303.034088 
	C439.240540,301.686584 439.809448,300.360229 440.358459,299.026306 
	C441.284271,300.125885 442.210022,301.225464 442.513885,301.586395 
	C446.863495,300.676056 451.017792,299.215820 455.186676,299.172974 
	C457.410034,299.150146 460.168762,301.128571 461.797241,302.983765 
	C466.174133,307.970001 465.730499,317.249573 461.367706,321.856689 
	C456.763489,326.718719 450.100739,326.676056 442.243317,320.786652 
	C442.243317,324.968964 442.469025,328.286560 442.159393,331.553436 
	C441.971313,333.537506 440.956085,335.443207 440.312500,337.384094 
	C439.776520,335.536652 438.811615,333.697144 438.777313,331.840454 
	C438.611359,322.862671 438.695648,313.880219 438.696930,304.462677 
M459.692749,306.156830 
	C455.298920,301.554443 450.787720,300.661041 446.437500,303.531677 
	C442.783905,305.942596 441.249237,311.397888 442.905701,316.085785 
	C444.484131,320.552795 448.625397,322.828064 453.709473,322.021545 
	C459.898285,321.039795 462.542572,314.717499 459.692749,306.156830 
z"/>
<path fill="#2B2E37" opacity="1.000000" stroke="none" 
	d="
M720.963684,491.946045 
	C719.706604,492.891968 718.449524,493.837860 717.192505,494.783752 
	C716.431641,493.383453 715.074951,492.011658 715.006287,490.578186 
	C714.554932,481.149475 714.143494,471.703400 714.305176,462.273041 
	C714.340088,460.237335 716.826538,456.480835 718.078918,456.524475 
	C724.587158,456.751251 731.143677,457.576904 737.511230,458.976898 
	C740.518677,459.638184 742.086487,462.391357 741.282471,466.077576 
	C740.845215,468.082336 741.685059,470.332733 741.546570,472.445984 
	C741.436523,474.127075 741.248596,476.368042 740.173584,477.322449 
	C735.699097,481.295074 735.571106,481.150909 738.080627,486.811279 
	C739.392456,486.415131 740.743225,486.007233 742.325928,485.529297 
	C742.325928,488.784271 742.325928,491.937836 742.325928,496.013000 
	C739.269470,498.244537 738.109924,497.608032 725.153442,485.000122 
	C723.940979,487.339142 722.790222,489.559235 721.301636,491.409790 
	C720.963806,487.065643 720.963806,483.090973 720.963806,477.214050 
	C724.138000,479.143158 726.522522,479.982025 727.998596,481.633057 
	C730.194214,484.089020 731.590088,487.243530 733.646484,489.847961 
	C734.563049,491.008850 736.259094,491.554230 737.601379,492.378998 
	C737.869629,491.976929 738.137817,491.574890 738.406067,491.172821 
	C735.788757,487.183014 733.171448,483.193176 730.354126,478.898346 
	C731.942810,478.108734 733.108459,477.566101 734.240295,476.960266 
	C738.173950,474.854767 739.221741,471.306213 738.777283,467.229645 
	C738.338867,463.208466 736.119446,459.975861 732.123535,459.468933 
	C727.309204,458.858154 722.358276,459.324402 717.168945,459.324402 
	C717.168945,469.559235 717.241272,479.370972 717.126404,489.180481 
	C717.090271,492.264771 718.731079,492.352386 720.963684,491.946045 
z"/>
<path fill="#139851" opacity="1.000000" stroke="none" 
	d="
M977.148315,318.188263 
	C977.261414,321.799591 977.524780,324.961243 977.465027,328.116791 
	C977.374878,332.878662 974.747803,334.504395 970.149536,333.103821 
	C965.410645,331.660339 962.768066,329.553864 962.989624,323.664825 
	C963.526978,309.378296 963.169128,309.406433 976.097107,302.987396 
	C980.245728,300.927521 983.796143,301.386200 988.319397,302.915192 
	C999.449646,306.677582 1002.984802,313.735229 1001.317871,324.839264 
	C1000.799683,328.290833 1000.327881,330.755188 996.840820,332.222473 
	C993.480347,333.636505 990.265320,335.461975 987.147095,337.369476 
	C983.100952,339.844635 979.667603,339.183319 976.055298,335.708832 
	C976.951721,335.247955 977.768982,334.486359 978.185791,334.664032 
	C986.205933,338.082703 991.158447,331.398376 997.042786,328.501465 
	C998.617981,327.725952 998.698242,323.084473 998.728455,320.210022 
	C998.766418,316.604950 1000.346619,312.033295 995.635010,310.069000 
	C989.454834,307.492462 984.400940,301.175140 976.060486,306.189758 
	C965.256042,312.685791 965.013428,312.147186 966.058594,325.219696 
	C966.369324,329.105927 969.000916,330.496704 971.978149,330.561676 
	C972.885376,330.581543 974.473755,327.241974 974.687622,325.322632 
	C975.117188,321.467133 974.815369,317.530151 974.815369,313.626801 
	C975.391052,313.569702 975.966675,313.512573 976.542358,313.455475 
	C976.746277,314.882263 976.950134,316.309082 977.148315,318.188263 
z"/>
<path fill="#F2F3F3" opacity="1.000000" stroke="none" 
	d="
M504.515198,320.962219 
	C506.575378,319.062408 508.272949,317.335114 509.970520,315.607788 
	C510.353638,315.989990 510.736755,316.372223 511.119873,316.754425 
	C510.559967,321.339996 507.537018,323.812531 503.278259,324.968475 
	C498.073578,326.381195 493.291595,325.428223 489.607452,321.302063 
	C486.089813,317.362335 485.655518,309.715302 488.367340,304.804199 
	C490.882111,300.249969 495.662354,297.682678 501.521576,299.071228 
	C504.606964,299.802460 508.291565,301.881714 509.829224,304.467896 
	C513.123169,310.008026 513.175720,313.496582 505.115662,313.027100 
	C500.344147,312.749176 495.543274,312.976257 490.757477,312.976257 
	C490.833282,320.966553 496.081970,323.996643 504.515198,320.962219 
M493.380402,303.814362 
	C492.262390,305.928375 491.144348,308.042419 489.752991,310.673279 
	C496.664734,310.673279 502.220703,310.673279 507.792236,310.673279 
	C507.230438,302.533325 502.078552,299.880859 493.380402,303.814362 
z"/>
<path fill="#F2F3F3" opacity="1.000000" stroke="none" 
	d="
M461.467590,492.167572 
	C456.532196,492.169708 452.044739,492.169708 447.171387,492.169708 
	C447.171387,481.081238 447.171387,470.227600 447.171387,458.862854 
	C453.207184,459.193176 459.208740,457.857971 464.918610,459.609039 
	C464.889740,460.268311 464.860870,460.927612 464.832031,461.586884 
	C460.298462,461.586884 455.764893,461.586884 450.920288,461.586884 
	C450.920288,465.865662 450.920288,469.589417 450.920288,473.272461 
	C454.724823,475.605072 460.080048,471.718933 464.405212,476.863678 
	C459.220581,476.863678 455.275940,476.863678 450.953705,476.863678 
	C450.953705,480.914032 450.953705,484.645752 450.953705,489.120148 
	C454.479767,489.120148 458.237610,489.013184 461.981842,489.191345 
	C462.983612,489.239075 463.943939,490.157349 464.923309,490.675964 
	C463.920715,491.172455 462.918091,491.668945 461.467590,492.167572 
z"/>
<path fill="#F2F3F3" opacity="1.000000" stroke="none" 
	d="
M404.523956,306.817871 
	C406.299347,307.311707 407.616852,307.805267 408.934357,308.298767 
	C407.607452,308.816528 406.308594,309.667816 404.947845,309.782135 
	C402.170380,310.015472 399.359589,309.852081 396.398071,309.852081 
	C396.398071,314.002014 396.398071,317.719757 396.398071,321.494293 
	C401.218201,321.943970 405.736938,322.353729 410.247009,322.843475 
	C410.382324,322.858154 410.426788,323.710083 410.595398,324.606445 
	C404.588409,324.606445 398.750702,324.606445 392.593933,324.606445 
	C392.593933,313.967987 392.593933,303.235840 392.593933,292.218933 
	C398.511505,292.218933 404.489624,292.218933 410.467743,292.218933 
	C410.505005,292.859131 410.542236,293.499329 410.579498,294.139526 
	C405.918213,294.391510 401.256897,294.643463 396.415680,294.905151 
	C396.415680,298.839172 396.415680,302.541779 396.415680,306.817627 
	C399.180023,306.817627 401.623047,306.817627 404.523956,306.817871 
z"/>
<path fill="#F2F3F3" opacity="1.000000" stroke="none" 
	d="
M546.049377,299.093994 
	C554.514954,298.508331 556.734192,299.821289 559.254272,307.484528 
	C557.566040,306.805847 556.338806,306.600525 555.522522,305.909668 
	C554.553162,305.089417 554.112976,303.187500 553.132874,302.928223 
	C550.867737,302.328979 548.331909,302.016846 546.078857,302.462616 
	C545.149536,302.646484 543.731689,305.616119 544.169739,306.371826 
	C545.108582,307.991547 546.958374,309.305359 548.717834,310.167297 
	C550.617065,311.097656 553.293945,310.818634 554.805481,312.067230 
	C556.723511,313.651581 558.970215,316.263336 558.932617,318.394257 
	C558.893982,320.581146 556.746521,323.703064 554.690613,324.698273 
	C548.717224,327.589905 542.475220,324.211914 541.166260,316.679657 
	C542.231018,317.535278 543.210632,318.537811 544.378967,319.214691 
	C546.548584,320.471680 548.762085,322.212036 551.086182,322.440552 
	C552.559875,322.585388 555.298889,320.561218 555.572510,319.143433 
	C555.835815,317.779022 553.970215,315.499512 552.464539,314.438873 
	C550.941772,313.366119 548.408325,313.740204 546.864136,312.682587 
	C544.453857,311.031708 541.438843,309.062439 540.614136,306.584412 
	C539.430359,303.027313 542.189148,300.462799 546.049377,299.093994 
z"/>
<path fill="#F2F3F3" opacity="1.000000" stroke="none" 
	d="
M530.512451,321.447998 
	C533.201782,317.649353 531.617981,315.518860 528.281372,314.251587 
	C525.968811,313.373291 523.090881,313.403473 521.257629,311.996002 
	C519.158630,310.384460 516.547058,307.521942 516.713867,305.404144 
	C516.889282,303.176727 519.704773,300.263031 522.047058,299.294342 
	C526.370483,297.506378 534.120911,299.310516 535.035095,307.764557 
	C533.352661,306.704895 532.269226,306.080994 531.249084,305.366699 
	C529.574097,304.194031 528.096252,302.403839 526.251892,301.888519 
	C523.557739,301.135803 520.757080,301.767029 520.066833,305.180145 
	C519.396179,308.495972 521.813782,309.438934 524.370789,310.133362 
	C526.612000,310.742065 529.308105,310.818359 530.957336,312.165436 
	C532.871216,313.728699 535.153198,316.574493 534.915039,318.583923 
	C534.640747,320.898804 532.203552,323.970520 529.972656,324.846436 
	C523.813904,327.264526 518.691895,324.283142 515.919800,316.582031 
	C517.853821,317.518555 519.444885,317.759125 519.992981,318.645020 
	C522.542297,322.765198 525.872803,323.648102 530.512451,321.447998 
z"/>
<path fill="#F2F3F3" opacity="1.000000" stroke="none" 
	d="
M427.905334,309.331512 
	C427.688843,311.270172 427.120544,313.198059 427.797638,314.455048 
	C429.670563,317.932159 432.063202,321.129333 434.559235,324.904297 
	C427.476013,325.315948 427.709686,318.058624 423.647156,315.813782 
	C419.706146,317.897400 420.485565,325.111298 413.329102,325.012421 
	C415.380341,321.748627 416.935059,318.919281 418.834930,316.344696 
	C421.053925,313.337646 421.648682,310.710297 418.908539,307.575348 
	C416.878418,305.252716 415.428650,302.422821 413.164825,298.972107 
	C420.259338,299.131226 420.179047,306.008118 424.080353,308.238068 
	C427.979645,306.015381 427.414703,299.017090 434.489594,298.922821 
	C432.101685,302.707214 430.111755,305.860901 427.905334,309.331512 
z"/>
<path fill="#F2F3F3" opacity="1.000000" stroke="none" 
	d="
M478.305603,299.566010 
	C480.024384,299.159363 481.425262,298.916412 482.826141,298.673462 
	C483.142487,299.171814 483.458832,299.670166 483.775177,300.168488 
	C482.764954,300.985291 481.855042,302.308136 480.727264,302.531616 
	C475.737793,303.520447 473.858459,306.648468 473.892365,311.403625 
	C473.923035,315.705536 473.898865,320.007874 472.732025,325.247833 
	C471.855255,324.266449 470.253479,323.309723 470.219208,322.299713 
	C469.994171,315.674438 470.021545,309.035431 470.193024,302.406769 
	C470.222656,301.261536 471.332275,300.144287 471.943054,299.014130 
	C472.858826,299.877594 473.774567,300.741058 474.920868,301.821869 
	C475.601562,301.357513 476.794647,300.543610 478.305603,299.566010 
z"/>
<path fill="#139851" opacity="1.000000" stroke="none" 
	d="
M993.858459,317.471954 
	C991.756592,316.808197 989.956299,315.565491 987.985657,315.168518 
	C986.515991,314.872528 984.826172,315.669922 983.234375,315.980347 
	C983.236877,316.511597 983.239380,317.042847 983.241821,317.574097 
	C985.726318,318.073883 988.373657,318.202026 990.641479,319.195984 
	C992.328003,319.935211 994.617249,321.779358 994.638855,323.162567 
	C994.661926,324.643616 992.624695,326.917053 990.994629,327.524597 
	C985.571838,329.545776 980.798279,327.411957 979.234131,322.146759 
	C983.232605,323.829071 986.804443,327.030487 992.492310,323.038116 
	C989.126404,322.136139 986.837036,321.873505 984.899902,320.905731 
	C982.929077,319.921143 981.305298,318.241974 979.529541,316.866913 
	C981.272400,315.370514 982.854553,312.904755 984.792236,312.583435 
	C988.601013,311.951996 993.027649,311.709137 993.858459,317.471954 
z"/>
<path fill="#139851" opacity="1.000000" stroke="none" 
	d="
M1051.873901,289.997253 
	C1049.614502,288.924591 1046.669922,287.882660 1045.843018,285.939575 
	C1044.335693,282.397095 1047.715332,278.342285 1051.562622,278.074677 
	C1054.912598,277.841614 1057.955078,281.262421 1058.090820,285.775024 
	C1056.090210,287.277039 1054.116943,288.449371 1051.873901,289.997253 
z"/>
<path fill="#2B2E37" opacity="1.000000" stroke="none" 
	d="
M1006.240112,308.182434 
	C1007.641479,309.378235 1008.664062,310.657288 1009.686707,311.936310 
	C1008.277222,312.454742 1006.339050,313.820770 1005.557190,313.333099 
	C1003.193481,311.858490 1003.508484,309.836578 1006.240112,308.182434 
z"/>
<path fill="#20232C" opacity="1.000000" stroke="none" 
	d="
M1098.273071,495.422791 
	C1110.744629,469.551819 1129.121094,450.816650 1157.348755,443.788330 
	C1176.445801,439.033386 1194.662598,442.024292 1211.003296,453.166595 
	C1217.483643,457.585236 1223.048828,463.344025 1229.043213,468.478058 
	C1231.318237,470.426575 1230.575928,471.990631 1228.724121,473.822449 
	C1210.149536,492.196411 1191.586914,510.583099 1173.108276,529.053528 
	C1157.340332,544.814453 1141.692993,560.695862 1125.979492,576.511230 
	C1119.729980,582.801147 1118.190186,582.584839 1112.815308,575.574036 
	C1105.322266,565.800232 1099.078857,555.347656 1095.512329,543.518066 
	C1091.902344,531.543884 1091.862793,519.382446 1094.803223,507.242981 
	C1095.738892,503.380524 1096.997803,499.596344 1098.273071,495.422791 
z"/>
<path fill="#2B2E37" opacity="1.000000" stroke="none" 
	d="
M740.005249,287.858429 
	C747.513550,296.045654 745.436646,303.688568 739.394592,310.983459 
	C738.111511,312.532593 735.824524,313.270233 733.952515,314.294952 
	C733.569641,314.504517 732.973083,314.307831 732.476196,314.327423 
	C719.471313,314.840240 717.626404,313.679504 712.799744,301.304077 
	C712.271667,299.950104 712.572021,298.188812 712.789917,296.659424 
	C712.922485,295.728760 713.614502,294.870117 714.088196,293.996979 
	C719.878418,283.323547 723.530457,281.506866 735.530701,283.976379 
	C737.136047,284.306702 738.398438,286.303497 740.005249,287.858429 
M721.555664,303.759918 
	C723.978455,306.942719 727.281006,308.978760 730.985046,307.174744 
	C733.485474,305.956970 736.014954,303.355194 736.986877,300.787750 
	C738.372314,297.127808 736.860413,293.032593 733.038269,291.706909 
	C730.298645,290.756714 726.301086,290.818054 723.865906,292.196625 
	C719.865967,294.461090 719.241272,298.748871 721.555664,303.759918 
z"/>
<path fill="#20232C" opacity="1.000000" stroke="none" 
	d="
M702.779907,309.691833 
	C697.528687,310.889954 686.740479,305.564972 685.486023,301.003418 
	C684.995972,299.221130 685.780029,296.003479 687.136169,295.005341 
	C690.941833,292.204437 695.304688,290.133972 699.556213,287.990448 
	C700.312622,287.609009 702.363770,288.016235 702.506714,288.471069 
	C704.019653,293.284668 708.433533,297.583191 705.208679,303.324615 
	C704.169495,305.174805 703.668518,307.327301 702.779907,309.691833 
z"/>
<path fill="#20232C" opacity="1.000000" stroke="none" 
	d="
M753.416748,292.363281 
	C754.191833,290.511475 754.806152,289.022430 755.953735,286.240601 
	C761.284180,289.407776 766.198669,291.989441 770.721680,295.134186 
	C773.737061,297.230743 773.815735,300.526703 770.820557,302.690338 
	C766.346558,305.922241 761.460876,308.584229 756.083801,311.899658 
	C753.704956,304.784119 748.760437,299.523376 753.416748,292.363281 
z"/>
<path fill="#20232C" opacity="1.000000" stroke="none" 
	d="
M738.934265,319.608887 
	C743.455811,318.302338 747.731384,317.293610 753.232056,315.995880 
	C753.232056,322.015900 753.766174,327.239349 753.080627,332.297455 
	C752.406616,337.270294 749.401733,338.882721 744.832153,336.890411 
	C740.381104,334.949738 736.359802,332.023712 731.656616,329.238251 
	C734.393616,325.606049 736.541016,322.756378 738.934265,319.608887 
z"/>
<path fill="#20232C" opacity="1.000000" stroke="none" 
	d="
M706.173828,316.887573 
	C715.349854,316.671478 721.769653,320.304840 725.841675,329.471497 
	C721.578369,331.919312 717.283508,335.001068 712.523315,336.941040 
	C707.983704,338.791168 704.714111,336.801239 704.439026,331.961151 
	C704.156799,326.995697 705.244751,321.952393 706.173828,316.887573 
z"/>
<path fill="#20232C" opacity="1.000000" stroke="none" 
	d="
M723.457520,272.638489 
	C719.763550,280.528290 712.686340,280.828156 704.690552,281.564545 
	C704.526917,276.513641 703.910400,271.456543 704.324707,266.485413 
	C704.771729,261.121948 708.108521,259.155304 713.048950,261.314667 
	C716.922363,263.007660 720.453430,265.598969 723.847473,268.172455 
	C724.490601,268.660126 723.777649,270.936096 723.457520,272.638489 
z"/>
<path fill="#20232C" opacity="1.000000" stroke="none" 
	d="
M742.303101,280.076202 
	C738.516541,276.867889 735.137207,273.687500 730.845337,269.648315 
	C735.963074,266.406677 739.871216,263.360168 744.246582,261.311432 
	C749.161377,259.010132 752.462402,260.877472 753.095703,266.265900 
	C753.662964,271.091919 753.215149,276.037292 753.215149,281.699310 
	C749.071289,281.070038 745.890808,280.587067 742.303101,280.076202 
z"/>
<path fill="#2B2E37" opacity="1.000000" stroke="none" 
	d="
M708.209473,306.923981 
	C708.671265,306.085327 709.020081,305.559265 709.595337,304.691589 
	C711.214417,307.506592 712.675781,310.047424 714.761597,313.674011 
	C711.582031,313.191101 709.341919,312.850891 706.536926,312.424866 
	C707.173218,310.307922 707.634827,308.772247 708.209473,306.923981 
z"/>
<path fill="#2B2E37" opacity="1.000000" stroke="none" 
	d="
M750.770142,310.220459 
	C748.724670,311.736145 746.579529,312.881409 744.434387,314.026672 
	C744.126282,313.599762 743.818176,313.172821 743.510071,312.745880 
	C744.964294,310.153320 746.418518,307.560791 748.372253,304.077667 
	C749.394653,306.645630 750.032532,308.247803 750.770142,310.220459 
z"/>
<path fill="#2B2E37" opacity="1.000000" stroke="none" 
	d="
M708.195435,291.109070 
	C707.637268,289.407684 707.196594,288.023163 706.569702,286.053436 
	C709.101318,285.574554 711.242981,285.169403 714.598694,284.534637 
	C712.615662,288.069305 711.218933,290.558838 709.655884,293.344940 
	C709.032837,292.454651 708.672852,291.940277 708.195435,291.109070 
z"/>
<path fill="#2B2E37" opacity="1.000000" stroke="none" 
	d="
M744.025391,284.964630 
	C746.259583,285.264618 748.493774,285.564636 751.304932,285.942108 
	C750.265991,288.743622 749.500793,290.806763 748.332458,293.957184 
	C746.507568,290.556946 745.199951,288.120514 743.969971,285.328064 
	C744.047546,284.972046 744.025391,284.964630 744.025391,284.964630 
z"/>
<path fill="#2B2E37" opacity="1.000000" stroke="none" 
	d="
M727.838684,324.000397 
	C726.524780,322.412292 725.463928,321.056976 723.880737,319.034363 
	C727.547729,319.034363 730.226440,319.034363 732.905090,319.034363 
	C733.176758,319.391205 733.448486,319.748016 733.720154,320.104858 
	C731.843994,321.480988 729.967834,322.857086 727.838684,324.000397 
z"/>
<path fill="#2B2E37" opacity="1.000000" stroke="none" 
	d="
M732.972229,279.007935 
	C730.246094,279.007935 727.519897,279.007935 723.834351,279.007935 
	C725.668030,276.705109 727.023193,275.003204 728.814514,272.753540 
	C730.439819,274.874023 731.778748,276.620850 733.032837,278.699890 
	C732.947998,279.032104 732.972229,279.007935 732.972229,279.007935 
z"/>
<path fill="#2B2E37" opacity="1.000000" stroke="none" 
	d="
M732.932434,279.043091 
	C732.916870,279.054047 733.032104,279.033905 733.002197,279.020935 
	C732.972229,279.007935 732.947998,279.032104 732.932434,279.043091 
z"/>
<path fill="#2B2E37" opacity="1.000000" stroke="none" 
	d="
M744.059448,284.968201 
	C744.071411,284.964355 743.946594,284.987915 743.985962,284.976257 
	C744.025391,284.964630 744.047546,284.972046 744.059448,284.968201 
z"/>
<path fill="#2B2E37" opacity="1.000000" stroke="none" 
	d="
M1003.299927,279.596497 
	C1007.374756,277.074127 1010.355042,279.454315 1011.940552,282.000488 
	C1012.821960,283.415955 1011.662109,287.153839 1010.214905,288.751373 
	C1007.104309,292.185303 1003.508972,290.303986 1000.675537,287.859741 
	C998.685242,286.142853 1000.169495,281.589050 1003.299927,279.596497 
z"/>
<path fill="#2B2E37" opacity="1.000000" stroke="none" 
	d="
M459.867371,306.518890 
	C462.542572,314.717499 459.898285,321.039795 453.709473,322.021545 
	C448.625397,322.828064 444.484131,320.552795 442.905701,316.085785 
	C441.249237,311.397888 442.783905,305.942596 446.437500,303.531677 
	C450.787720,300.661041 455.298920,301.554443 459.867371,306.518890 
z"/>
<path fill="#6FC5DD" opacity="1.000000" stroke="none" 
	d="
M720.984497,491.968384 
	C718.731079,492.352386 717.090271,492.264771 717.126404,489.180481 
	C717.241272,479.370972 717.168945,469.559235 717.168945,459.324402 
	C722.358276,459.324402 727.309204,458.858154 732.123535,459.468933 
	C736.119446,459.975861 738.338867,463.208466 738.777283,467.229645 
	C739.221741,471.306213 738.173950,474.854767 734.240295,476.960266 
	C733.108459,477.566101 731.942810,478.108734 730.354126,478.898346 
	C733.171448,483.193176 735.788757,487.183014 738.406067,491.172821 
	C738.137817,491.574890 737.869629,491.976929 737.601379,492.378998 
	C736.259094,491.554230 734.563049,491.008850 733.646484,489.847961 
	C731.590088,487.243530 730.194214,484.089020 727.998596,481.633057 
	C726.522522,479.982025 724.138000,479.143158 720.963806,477.214050 
	C720.963806,483.090973 720.963806,487.065643 720.956970,491.503845 
	C720.950134,491.967346 721.005371,491.990723 720.984497,491.968384 
M720.959045,471.167603 
	C721.073547,472.575287 721.188110,473.982941 721.433228,476.996552 
	C726.267029,475.358215 730.584229,474.502075 734.109375,472.349091 
	C735.242249,471.657196 735.259949,466.909821 734.094910,465.119385 
	C731.070923,460.472290 725.981995,462.041107 720.955383,462.096680 
	C720.955383,465.028351 720.955383,467.642334 720.959045,471.167603 
z"/>
<path fill="#2B2E37" opacity="1.000000" stroke="none" 
	d="
M493.693054,303.546722 
	C502.078552,299.880859 507.230438,302.533325 507.792236,310.673279 
	C502.220703,310.673279 496.664734,310.673279 489.752991,310.673279 
	C491.144348,308.042419 492.262390,305.928375 493.693054,303.546722 
z"/>
<path fill="#6FC5DD" opacity="1.000000" stroke="none" 
	d="
M721.368958,303.429901 
	C719.241272,298.748871 719.865967,294.461090 723.865906,292.196625 
	C726.301086,290.818054 730.298645,290.756714 733.038269,291.706909 
	C736.860413,293.032593 738.372314,297.127808 736.986877,300.787750 
	C736.014954,303.355194 733.485474,305.956970 730.985046,307.174744 
	C727.281006,308.978760 723.978455,306.942719 721.368958,303.429901 
z"/>
<path fill="#2B2E37" opacity="1.000000" stroke="none" 
	d="
M720.957214,470.711975 
	C720.955383,467.642334 720.955383,465.028351 720.955383,462.096680 
	C725.981995,462.041107 731.070923,460.472290 734.094910,465.119385 
	C735.259949,466.909821 735.242249,471.657196 734.109375,472.349091 
	C730.584229,474.502075 726.267029,475.358215 721.433228,476.996552 
	C721.188110,473.982941 721.073547,472.575287 720.957214,470.711975 
z"/>
</svg>