<svg version="1.1" id="Layer_1" xmlns="http://www.w3.org/2000/svg" xmlns:xlink="http://www.w3.org/1999/xlink" x="0px" y="0px"
	 width="100%" viewBox="0 0 800 800" enable-background="new 0 0 800 800" xml:space="preserve">
<path fill="#01031A" opacity="1.000000" stroke="none" 
	d="
M801.000000,488.000000 
	C801.000000,592.301697 801.000000,696.603455 801.000000,800.952576 
	C534.445740,800.952576 267.891479,800.952576 1.000000,800.952576 
	C1.000000,704.642029 1.000000,608.283630 1.466315,511.462646 
	C6.205517,511.000000 10.478403,511.000000 15.515957,511.000000 
	C15.515957,442.486206 15.515957,374.506470 15.515957,306.526733 
	C16.187904,306.110992 16.859854,305.695251 17.531801,305.279510 
	C17.873030,306.214722 18.036726,307.272064 18.582975,308.066254 
	C23.985048,315.920227 29.491999,323.702026 34.890278,331.558594 
	C50.885212,354.837311 66.856476,378.132324 82.814522,401.436371 
	C103.879311,432.197937 124.619194,463.187775 146.070328,493.677307 
	C163.573868,518.555969 181.866943,542.880798 199.904114,567.381897 
	C212.194199,584.076355 224.621628,600.670044 237.039078,617.270325 
	C241.731781,623.543701 246.569000,629.708984 251.340347,635.923584 
	C251.766129,634.234985 251.284958,633.133179 250.628601,632.148193 
	C228.629669,599.135010 206.630493,566.121948 184.595062,533.133118 
	C169.722321,510.867371 154.764923,488.658173 139.897919,466.388611 
	C101.218185,408.449677 62.525208,350.519440 23.974312,292.494873 
	C20.362562,287.058655 16.551994,283.460236 9.478864,284.909271 
	C6.760466,285.466156 3.832484,285.000000 1.000000,285.000000 
	C1.000000,190.359558 1.000000,95.719131 1.000000,1.039348 
	C267.566528,1.039348 534.133118,1.039348 801.000000,1.039348 
	C801.000000,152.024765 801.000000,303.049744 800.656372,454.445923 
	C798.561157,452.546539 797.207825,449.723206 794.977844,448.116791 
	C789.830566,444.408752 783.989075,443.641357 777.619568,444.902863 
	C770.278748,446.356689 765.296448,450.623230 765.000000,456.783844 
	C764.546753,466.206879 767.768250,470.906769 776.093262,472.980896 
	C780.137695,473.988556 784.366455,474.572235 788.146545,476.197388 
	C790.162598,477.064117 792.984314,480.134979 792.640381,481.510529 
	C792.040710,483.909241 789.660645,486.770142 787.343994,487.660217 
	C780.690308,490.216583 773.466125,487.850494 771.578979,481.182495 
	C768.783020,481.182495 765.982605,481.182495 762.732056,481.182495 
	C764.243347,487.118866 766.249512,491.866058 772.509216,494.167755 
	C783.483215,498.202820 792.843994,496.252869 801.000000,488.000000 
M189.000000,486.500000 
	C189.000000,494.597595 189.000000,502.695190 189.000000,510.713348 
	C240.647369,510.713348 291.713165,510.713348 342.706696,510.713348 
	C342.706696,506.347412 342.706696,502.274689 342.706696,497.817169 
	C296.348297,497.817169 250.281952,497.817169 204.292328,497.817169 
	C204.292328,465.015869 204.292328,432.615356 204.292328,399.818512 
	C247.318237,399.818512 290.053131,399.818512 332.703247,399.818512 
	C332.703247,395.342133 332.703247,391.270081 332.703247,386.809753 
	C289.674286,386.809753 246.940735,386.809753 204.296951,386.809753 
	C204.296951,357.007202 204.296951,327.606201 204.296951,297.809814 
	C249.993881,297.809814 295.395050,297.809814 340.699097,297.809814 
	C340.699097,293.334106 340.699097,289.262085 340.699097,285.298065 
	C289.999817,285.298065 239.601913,285.298065 189.000000,285.298065 
	C189.000000,352.230621 189.000000,418.865295 189.000000,486.500000 
M475.499542,453.999969 
	C488.123566,471.607178 500.724335,489.231171 513.410645,506.793396 
	C514.568542,508.396332 516.175842,510.655579 517.744019,510.802765 
	C523.079773,511.303467 528.491455,510.994232 534.655945,510.994232 
	C533.037964,508.583862 532.028076,506.979279 530.920776,505.445099 
	C515.300110,483.802765 499.659546,462.174744 484.037689,440.533234 
	C473.719666,426.239349 463.390839,411.952820 453.183197,397.580383 
	C452.397461,396.474060 451.769470,394.186768 452.355988,393.331573 
	C466.058441,373.351135 479.985718,353.525146 493.774353,333.603455 
	C510.865326,308.910522 527.891907,284.172913 544.903381,259.425079 
	C563.004211,233.092438 581.056335,206.726257 599.126099,180.372284 
	C602.497803,175.454742 605.852539,170.525620 609.215088,165.601852 
	C608.809509,165.318634 608.403992,165.035431 607.998413,164.752213 
	C550.951355,236.262268 494.569183,308.282593 441.713928,383.379761 
	C440.314758,381.886200 439.150970,380.896484 438.291809,379.689850 
	C417.107117,349.938843 395.967010,320.156128 374.768280,290.415161 
	C373.386169,288.476166 371.770142,285.526428 369.966492,285.287842 
	C364.726135,284.594696 359.334900,285.042145 353.070129,285.042145 
	C379.927490,322.467621 406.020508,358.828064 431.944855,394.953400 
	C403.851227,433.591675 375.916656,472.011200 347.568207,510.999939 
	C353.360596,510.999939 358.177307,511.181610 362.965027,510.889038 
	C364.397278,510.801514 366.156311,509.703888 367.065613,508.527832 
	C370.822937,503.668488 374.284027,498.581268 377.903809,493.614105 
	C395.253571,469.806305 412.620422,446.010925 429.979248,422.209686 
	C433.706787,417.098724 437.426514,411.982056 441.370911,406.564362 
	C452.947418,422.719818 463.965027,438.095276 475.499542,453.999969 
M618.000000,339.500000 
	C618.000000,396.587524 618.000000,453.675079 618.000000,510.713623 
	C623.304688,510.713623 628.043091,510.713623 633.164001,510.713623 
	C633.164001,439.699402 633.164001,368.970673 633.164001,297.842529 
	C659.626404,297.842529 685.697510,297.842529 711.714111,297.842529 
	C711.714111,293.363251 711.714111,289.291321 711.714111,285.279907 
	C654.030212,285.279907 596.632629,285.279907 539.286316,285.279907 
	C539.286316,289.637604 539.286316,293.709564 539.286316,298.172607 
	C565.640259,298.172607 591.710205,298.172607 617.699646,298.172607 
	C617.850586,298.885193 617.973938,299.196564 617.974304,299.508026 
	C617.989746,312.505341 617.994202,325.502686 618.000000,339.500000 
M754.000000,464.500488 
	C754.000000,458.407104 754.000000,452.313751 754.000000,446.267822 
	C751.055664,446.267822 748.654602,446.267822 746.000244,446.267822 
	C746.000244,447.336853 746.000183,448.143250 746.000183,448.949615 
	C746.000122,459.255768 746.324097,469.578918 745.784180,479.856689 
	C745.639648,482.607513 743.420288,486.106323 741.089661,487.585266 
	C739.524841,488.578247 734.406555,487.325134 733.789856,485.855255 
	C731.576111,480.579315 727.868225,482.059967 724.172852,482.214264 
	C723.902832,490.419861 729.235840,495.953522 737.193665,496.000031 
	C749.630981,496.072723 754.000000,491.903442 754.000000,479.962097 
	C754.000000,475.141479 754.000000,470.320862 754.000000,464.500488 
M705.959106,487.411255 
	C706.134705,489.609741 705.659485,492.221436 706.704773,493.867859 
	C707.457336,495.053223 710.483887,495.716553 712.043457,495.212372 
	C713.647888,494.693665 715.530029,492.600159 715.774170,490.968811 
	C716.036438,489.216553 714.816467,485.799744 713.744934,485.583984 
	C711.343567,485.100403 708.633179,486.151428 705.959106,487.411255 
z"/>
<path fill="#FFFFFF" opacity="1.000000" stroke="none" 
	d="
M1.000000,285.468658 
	C3.832484,285.000000 6.760466,285.466156 9.478864,284.909271 
	C16.551994,283.460236 20.362562,287.058655 23.974312,292.494873 
	C62.525208,350.519440 101.218185,408.449677 139.897919,466.388611 
	C154.764923,488.658173 169.722321,510.867371 184.595062,533.133118 
	C206.630493,566.121948 228.629669,599.135010 250.628601,632.148193 
	C251.284958,633.133179 251.766129,634.234985 251.340347,635.923584 
	C246.569000,629.708984 241.731781,623.543701 237.039078,617.270325 
	C224.621628,600.670044 212.194199,584.076355 199.904114,567.381897 
	C181.866943,542.880798 163.573868,518.555969 146.070328,493.677307 
	C124.619194,463.187775 103.879311,432.197937 82.814522,401.436371 
	C66.856476,378.132324 50.885212,354.837311 34.890278,331.558594 
	C29.491999,323.702026 23.985048,315.920227 18.582975,308.066254 
	C18.036726,307.272064 17.873030,306.214722 17.531801,305.279510 
	C16.859854,305.695251 16.187904,306.110992 15.515957,306.526733 
	C15.515957,374.506470 15.515957,442.486206 15.515957,511.000000 
	C10.478403,511.000000 6.205517,511.000000 1.466315,511.000000 
	C1.000000,435.979095 1.000000,360.958221 1.000000,285.468658 
z"/>
<path fill="#FFFFFF" opacity="1.000000" stroke="none" 
	d="
M801.000000,487.536804 
	C792.843994,496.252869 783.483215,498.202820 772.509216,494.167755 
	C766.249512,491.866058 764.243347,487.118866 762.732056,481.182495 
	C765.982605,481.182495 768.783020,481.182495 771.578979,481.182495 
	C773.466125,487.850494 780.690308,490.216583 787.343994,487.660217 
	C789.660645,486.770142 792.040710,483.909241 792.640381,481.510529 
	C792.984314,480.134979 790.162598,477.064117 788.146545,476.197388 
	C784.366455,474.572235 780.137695,473.988556 776.093262,472.980896 
	C767.768250,470.906769 764.546753,466.206879 765.000000,456.783844 
	C765.296448,450.623230 770.278748,446.356689 777.619568,444.902863 
	C783.989075,443.641357 789.830566,444.408752 794.977844,448.116791 
	C797.207825,449.723206 798.561157,452.546539 800.656372,454.908569 
	C801.000000,456.066681 801.000000,457.133331 800.551025,458.600006 
	C797.477051,459.000000 794.852051,459.000000 792.379578,459.000000 
	C790.204224,454.391479 787.227966,452.179596 783.237305,452.000061 
	C778.564636,451.789856 773.661438,454.549133 773.033997,457.741882 
	C772.421387,460.858795 775.734558,463.664612 781.217041,465.028137 
	C788.545227,466.850677 796.401062,467.724792 801.000000,475.000000 
	C801.000000,479.024536 801.000000,483.049103 801.000000,487.536804 
z"/>
<path fill="#01031A" opacity="1.000000" stroke="none" 
	d="
M801.000000,474.533142 
	C796.401062,467.724792 788.545227,466.850677 781.217041,465.028137 
	C775.734558,463.664612 772.421387,460.858795 773.033997,457.741882 
	C773.661438,454.549133 778.564636,451.789856 783.237305,452.000061 
	C787.227966,452.179596 790.204224,454.391479 792.379578,459.000000 
	C794.852051,459.000000 797.477051,459.000000 800.551025,459.000000 
	C801.000000,464.022095 801.000000,469.044189 801.000000,474.533142 
z"/>
<path fill="#FFFFFF" opacity="1.000000" stroke="none" 
	d="
M189.000000,486.000000 
	C189.000000,418.865295 189.000000,352.230621 189.000000,285.298065 
	C239.601913,285.298065 289.999817,285.298065 340.699097,285.298065 
	C340.699097,289.262085 340.699097,293.334106 340.699097,297.809814 
	C295.395050,297.809814 249.993881,297.809814 204.296951,297.809814 
	C204.296951,327.606201 204.296951,357.007202 204.296951,386.809753 
	C246.940735,386.809753 289.674286,386.809753 332.703247,386.809753 
	C332.703247,391.270081 332.703247,395.342133 332.703247,399.818512 
	C290.053131,399.818512 247.318237,399.818512 204.292328,399.818512 
	C204.292328,432.615356 204.292328,465.015869 204.292328,497.817169 
	C250.281952,497.817169 296.348297,497.817169 342.706696,497.817169 
	C342.706696,502.274689 342.706696,506.347412 342.706696,510.713348 
	C291.713165,510.713348 240.647369,510.713348 189.000000,510.713348 
	C189.000000,502.695190 189.000000,494.597595 189.000000,486.000000 
z"/>
<path fill="#FFFFFF" opacity="1.000000" stroke="none" 
	d="
M475.241089,453.735352 
	C463.965027,438.095276 452.947418,422.719818 441.370911,406.564362 
	C437.426514,411.982056 433.706787,417.098724 429.979248,422.209686 
	C412.620422,446.010925 395.253571,469.806305 377.903809,493.614105 
	C374.284027,498.581268 370.822937,503.668488 367.065613,508.527832 
	C366.156311,509.703888 364.397278,510.801514 362.965027,510.889038 
	C358.177307,511.181610 353.360596,510.999939 347.568207,510.999939 
	C375.916656,472.011200 403.851227,433.591675 431.944855,394.953400 
	C406.020508,358.828064 379.927490,322.467621 353.070129,285.042145 
	C359.334900,285.042145 364.726135,284.594696 369.966492,285.287842 
	C371.770142,285.526428 373.386169,288.476166 374.768280,290.415161 
	C395.967010,320.156128 417.107117,349.938843 438.291809,379.689850 
	C439.150970,380.896484 440.314758,381.886200 441.713928,383.379761 
	C494.569183,308.282593 550.951355,236.262268 607.998413,164.752213 
	C608.403992,165.035431 608.809509,165.318634 609.215088,165.601852 
	C605.852539,170.525620 602.497803,175.454742 599.126099,180.372284 
	C581.056335,206.726257 563.004211,233.092438 544.903381,259.425079 
	C527.891907,284.172913 510.865326,308.910522 493.774353,333.603455 
	C479.985718,353.525146 466.058441,373.351135 452.355988,393.331573 
	C451.769470,394.186768 452.397461,396.474060 453.183197,397.580383 
	C463.390839,411.952820 473.719666,426.239349 484.037689,440.533234 
	C499.659546,462.174744 515.300110,483.802765 530.920776,505.445099 
	C532.028076,506.979279 533.037964,508.583862 534.655945,510.994232 
	C528.491455,510.994232 523.079773,511.303467 517.744019,510.802765 
	C516.175842,510.655579 514.568542,508.396332 513.410645,506.793396 
	C500.724335,489.231171 488.123566,471.607178 475.241089,453.735352 
z"/>
<path fill="#FFFFFF" opacity="1.000000" stroke="none" 
	d="
M618.000000,339.000000 
	C617.994202,325.502686 617.989746,312.505341 617.974304,299.508026 
	C617.973938,299.196564 617.850586,298.885193 617.699646,298.172607 
	C591.710205,298.172607 565.640259,298.172607 539.286316,298.172607 
	C539.286316,293.709564 539.286316,289.637604 539.286316,285.279907 
	C596.632629,285.279907 654.030212,285.279907 711.714111,285.279907 
	C711.714111,289.291321 711.714111,293.363251 711.714111,297.842529 
	C685.697510,297.842529 659.626404,297.842529 633.164001,297.842529 
	C633.164001,368.970673 633.164001,439.699402 633.164001,510.713623 
	C628.043091,510.713623 623.304688,510.713623 618.000000,510.713623 
	C618.000000,453.675079 618.000000,396.587524 618.000000,339.000000 
z"/>
<path fill="#FFFFFF" opacity="1.000000" stroke="none" 
	d="
M754.000000,465.000366 
	C754.000000,470.320862 754.000000,475.141479 754.000000,479.962097 
	C754.000000,491.903442 749.630981,496.072723 737.193665,496.000031 
	C729.235840,495.953522 723.902832,490.419861 724.172852,482.214264 
	C727.868225,482.059967 731.576111,480.579315 733.789856,485.855255 
	C734.406555,487.325134 739.524841,488.578247 741.089661,487.585266 
	C743.420288,486.106323 745.639648,482.607513 745.784180,479.856689 
	C746.324097,469.578918 746.000122,459.255768 746.000183,448.949615 
	C746.000183,448.143250 746.000244,447.336853 746.000244,446.267822 
	C748.654602,446.267822 751.055664,446.267822 754.000000,446.267822 
	C754.000000,452.313751 754.000000,458.407104 754.000000,465.000366 
z"/>
<path fill="#FFFFFF" opacity="1.000000" stroke="none" 
	d="
M706.003845,486.994385 
	C708.633179,486.151428 711.343567,485.100403 713.744934,485.583984 
	C714.816467,485.799744 716.036438,489.216553 715.774170,490.968811 
	C715.530029,492.600159 713.647888,494.693665 712.043457,495.212372 
	C710.483887,495.716553 707.457336,495.053223 706.704773,493.867859 
	C705.659485,492.221436 706.134705,489.609741 706.003845,486.994385 
z"/>
</svg>